G04 ================== begin FILE IDENTIFICATION RECORD ==================*
G04 Layout Name:  C:/Users/user/Desktop/OSCILLATOR/OSCILLATOR.brd*
G04 Film Name:    BOTTOM*
G04 File Format:  Gerber RS274X*
G04 File Origin:  Cadence Allegro 17.2-P019*
G04 Origin Date:  Thu Aug 01 11:31:36 2019*
G04 *
G04 Layer:  ETCH/BOTTOM*
G04 Layer:  PIN/BOTTOM*
G04 Layer:  VIA CLASS/BOTTOM*
G04 *
G04 Offset:    (0.000 0.000)*
G04 Mirror:    No*
G04 Mode:      Positive*
G04 Rotation:  0*
G04 FullContactRelief:  No*
G04 UndefLineWidth:     0.000*
G04 ================== end FILE IDENTIFICATION RECORD ====================*
%FSLAX25Y25*MOMM*%
%IR0*IPPOS*OFA0.00000B0.00000*MIA0B0*SFA1.00000B1.00000*%
%ADD11C,1.524*%
%ADD12C,1.651*%
%ADD14C,1.905*%
%ADD15R,1.524X1.524*%
%ADD13R,1.905X1.905*%
%ADD10C,.635*%
%ADD16C,1.*%
%ADD17C,.5*%
%ADD18C,2.402*%
%ADD19C,2.274*%
%ADD20C,2.528*%
%ADD21C,2.656*%
G75*
%LPD*%
G75*
G36*
G01X754200Y500000D02*
Y754200D01*
X500000D01*
Y3365600D01*
G03X516200Y3366600I327J126420D01*
G01X518700Y3367000D01*
X559800Y3325900D01*
Y2114400D01*
X653900Y2020300D01*
X1872600D01*
X1975800Y2123400D01*
G03X2022700Y2165800I-71812J126572D01*
G02X2039300I8300J-5870D01*
G03X2259700Y2354000I118683J84166D01*
G01X2258200Y2355500D01*
Y2366500D01*
X2259200Y2367500D01*
Y4359500D01*
X2050500Y4568200D01*
X1887100D01*
G03X1856500Y4585500I-76903J-100312D01*
G02Y4604500I3796J9500D01*
G03Y4839500I-46500J117500D01*
G02Y4858500I3796J9500D01*
G03X1931500Y4941300I-46517J117502D01*
G01X1949600D01*
X2043700Y5035400D01*
Y5697400D01*
X2049600Y5703300D01*
X2113000D01*
G03X2297700Y5888000I109500J75200D01*
G01Y6057900D01*
G03X2147300I-75200J101600D01*
G01Y5888000D01*
G03X2113000Y5853700I75200J-109500D01*
G01X1987400D01*
X1893300Y5759600D01*
Y5361500D01*
G02X1888000Y5356400I-5088J-17D01*
G01X1733800D01*
G03X1683600Y5306200I0J-50200D01*
G01Y5153800D01*
G03X1733800Y5103600I50200J0D01*
G01X1740200D01*
G02X1745400Y5084600I6J-10210D01*
G03X1763500Y4858500I64628J-108601D01*
G02Y4839500I-3796J-9500D01*
G03X1708400Y4797200I46451J-117544D01*
G01X1642900D01*
X1575800Y4730100D01*
Y3348000D01*
G03X1726200I75200J-109500D01*
G01Y4352900D01*
G02X1741900Y4361500I10193J23D01*
G03X1887100Y4367800I68116J106492D01*
G01X1967500D01*
X2058800Y4276500D01*
Y2450500D01*
X2057800Y2449500D01*
Y2355500D01*
G03X2039300Y2334200I100095J-105621D01*
G02X2022700I-8300J5870D01*
G03X1798700Y2350400I-118675J-84195D01*
G02X1781500Y2354900I-7337J7079D01*
G03X1745200Y2382800I-36266J-9621D01*
G01X1554800D01*
G03X1517200Y2345200I-50J-37550D01*
G01Y2170700D01*
X716100D01*
X710200Y2176600D01*
Y3388100D01*
X648800Y3449500D01*
X710200Y3510900D01*
Y5676900D01*
G03X519500Y5829900I-75217J101594D01*
G02X500000Y5834000I-9310J4142D01*
G01Y6245800D01*
X754200D01*
Y6500000D01*
X2363200D01*
G02X2371700Y6484100I23J-10209D01*
G03X2492700Y6288100I104822J-70638D01*
G01X2495200Y6288500D01*
X2531500Y6252100D01*
G02X2524300Y6234700I-7188J-7215D01*
G01X2445400D01*
X2370200Y6159500D01*
Y4817500D01*
X2406600Y4781100D01*
X2342600Y4717100D01*
Y3261600D01*
X2440900Y3163300D01*
X2557500D01*
G03Y3313700I109500J75200D01*
G01X2503100D01*
X2493000Y3323800D01*
Y4350000D01*
G02X2508300Y4358800I10190J-16D01*
G03X2618500Y4585500I63712J109164D01*
G02Y4604500I3796J9500D01*
G03Y4839500I-46500J117500D01*
G02Y4858500I3796J9500D01*
G03X2649100Y4875800I-46303J117612D01*
G01X3347800D01*
Y2335500D01*
G03X3329300Y2314200I100095J-105621D01*
G02X3312700I-8300J5870D01*
G03X3088700Y2330400I-118675J-84195D01*
G02X3071500Y2334900I-7337J7079D01*
G03X3035200Y2362800I-36266J-9621D01*
G01X2844800D01*
G03X2807200Y2325200I-50J-37550D01*
G01Y2134800D01*
G03X2844800Y2097200I37550J-50D01*
G01X3035200D01*
G03X3071500Y2125100I34J37521D01*
G02X3088700Y2129600I9863J-2579D01*
G03X3312700Y2145800I105325J100395D01*
G02X3329300I8300J-5870D01*
G03X3584800Y2180400I118693J84183D01*
G02X3601600Y2184100I9581J-3511D01*
G01X3638400Y2147300D01*
X3827500D01*
G03Y2297700I109500J75200D01*
G01X3700600D01*
X3694700Y2303600D01*
Y4321200D01*
G02X3711200Y4329100I10179J-78D01*
G03X3836500Y4545500I78758J98873D01*
G02Y4564500I3796J9500D01*
G03Y4799500I-46500J117500D01*
G02Y4818500I3796J9500D01*
G03X3854600Y5044600I-46528J117499D01*
G02X3859800Y5063600I5194J8790D01*
G01X3866200D01*
G03X3916400Y5113800I0J50200D01*
G01Y5266200D01*
G03X3866200Y5316400I-50200J0D01*
G01X3713800D01*
G03X3706400Y5315900I-324J-50222D01*
G02X3694700Y5325900I-1519J10067D01*
G01Y5455600D01*
X3699200Y5456200D01*
G03X3552000Y5566300I-16193J131801D01*
G01X3552400Y5563800D01*
X3544300Y5555600D01*
Y5027000D01*
G02X3526900Y5019800I-10198J20D01*
G01X3470500Y5076200D01*
X2649100D01*
G03X2618500Y5093500I-76903J-100312D01*
G02Y5112500I3796J9500D01*
G03X2533900Y5350500I-46502J117506D01*
G02X2520600Y5360200I-3096J9722D01*
G01Y6084300D01*
X2628900D01*
G03X2714300Y6284900I101595J75227D01*
G01X2711800Y6284500D01*
X2601500Y6394800D01*
X2601900Y6397300D01*
G03X2581300Y6484100I-125373J16090D01*
G02X2589800Y6500000I8477J5691D01*
G01X9245800D01*
Y6245800D01*
X9500000D01*
Y3867700D01*
G03X9426500Y3840700I51J-113681D01*
G02X9409700Y3848500I-6591J7797D01*
G01Y4426100D01*
X9390800Y4445000D01*
X9409700Y4463900D01*
Y5251600D01*
X9252100Y5409200D01*
X9190000D01*
G03X9183100Y5249700I-109493J-75163D01*
G02X9198200Y5250400I7866J-6474D01*
G01X9259300Y5189400D01*
Y5040200D01*
G02X9241300Y5033700I-10193J54D01*
G03X9097500Y4835500I-97299J-80673D01*
G02Y4816500I-3796J-9500D01*
G03X9018900Y4717000I46493J-117522D01*
G01X9018700Y4715400D01*
X8853300Y4550000D01*
Y3189500D01*
X8812000Y3148200D01*
X8395600D01*
G03Y2947800I-77100J-100200D01*
G01X8895000D01*
X9053700Y3106500D01*
Y4080400D01*
G02X9069900Y4088600I10197J-44D01*
G03X9241300Y4110300I74109J102399D01*
G02X9259300Y4103800I7807J-6554D01*
G01Y3511400D01*
X9353400Y3417300D01*
X9404400D01*
G03X9500000Y3373600I95600J82719D01*
G01Y754200D01*
X9245800D01*
Y500000D01*
X754200D01*
G37*
%LPC*%
G75*
G36*
G01X8255600Y4876800D02*
Y5029200D01*
G02X8305800Y5079400I50200J0D01*
G01X8458200D01*
G02X8508400Y5029200I0J-50200D01*
G01Y4876800D01*
G02X8458200Y4826600I-50200J0D01*
G01X8305800D01*
G02X8255600Y4876800I0J50200D01*
G37*
G36*
G01X7250700Y2557500D02*
Y2332000D01*
G02X7100300I-75200J-109500D01*
G01Y2557500D01*
G02X7066000Y2591800I75200J109500D01*
G01X7017400D01*
X6909800Y2699400D01*
Y4167300D01*
G03X6891800Y4173800I-10193J-54D01*
G02X6748000Y4372000I-97299J80673D01*
G03Y4391000I-3796J9500D01*
G02Y4626000I46500J117500D01*
G03Y4645000I-3796J9500D01*
G02Y4880000I46500J117500D01*
G03Y4899000I-3796J9500D01*
G02X6891800Y5097200I46501J117527D01*
G03X6909800Y5103700I7807J6554D01*
G01Y5224500D01*
G02X6943300Y5460100I75179J109492D01*
G02X7026700I41700J-62600D01*
G02X7060200Y5224500I-41679J-126108D01*
G01Y4527400D01*
X7041300Y4508500D01*
X7060200Y4489600D01*
Y3125000D01*
G03X7078600Y3119000I10188J29D01*
G02Y2977000I96900J-71000D01*
G03X7060200Y2971000I-8212J-6029D01*
G01Y2761600D01*
X7064100Y2757700D01*
G03X7078700Y2758000I7154J7255D01*
G02X7250700Y2557500I96793J-90991D01*
G37*
G36*
G01X4598500Y4545500D02*
G02X4505500I-46500J-117500D01*
G03Y4564500I-3796J9500D01*
G02Y4799500I46500J117500D01*
G03Y4818500I-3796J9500D01*
G02Y5053500I46500J117500D01*
G03Y5072500I-3796J9500D01*
G02X4598500I46500J117500D01*
G03Y5053500I3796J-9500D01*
G02Y4818500I-46500J-117500D01*
G03Y4799500I3796J-9500D01*
G02Y4564500I-46500J-117500D01*
G03Y4545500I3796J-9500D01*
G37*
G36*
G01X8428500Y4308500D02*
G02X8335500I-46500J-117500D01*
G03Y4327500I-3796J9500D01*
G02X8483600Y4520200I46497J117526D01*
G01X8668500D01*
X8687800Y4539500D01*
Y6331100D01*
X8781900Y6425200D01*
X8971000D01*
G02Y6274800I109500J-75200D01*
G01X8844100D01*
X8838200Y6268900D01*
Y4477300D01*
X8730700Y4369800D01*
X8483600D01*
G02X8428500Y4327500I-101551J75244D01*
G03Y4308500I3796J-9500D01*
G37*
G36*
G01X6234700Y1760500D02*
G02X6084300I-75200J-109500D01*
G01Y2113000D01*
G02X6028500Y2244200I75215J109455D01*
G01X6028900Y2246700D01*
X5893800Y2381900D01*
Y3142700D01*
X6084300Y3333200D01*
Y4124400D01*
G03X6071000Y4134100I-10195J-11D01*
G02X5955400Y4154300I-38526J120398D01*
G01X5837000D01*
X5678300Y4313000D01*
Y5256900D01*
G02X5878700I100200J77100D01*
G01Y4396000D01*
X5920000Y4354700D01*
X5955400D01*
X5956800Y4355700D01*
G02X5986000Y4372000I75660J-101233D01*
G03Y4391000I-3796J9500D01*
G02Y4626000I46500J117500D01*
G03Y4645000I-3796J9500D01*
G02X5967900Y4871100I46528J117499D01*
G03X5962700Y4890100I-5194J8790D01*
G01X5956300D01*
G02X5906100Y4940300I0J50200D01*
G01Y5092700D01*
G02X5956300Y5142900I50200J0D01*
G01X6108700D01*
G02X6158900Y5092700I0J-50200D01*
G01Y4940300D01*
G02X6108700Y4890100I-50200J0D01*
G01X6102300D01*
G03X6097100Y4871100I-6J-10210D01*
G02X6134100Y4837700I-64526J-108675D01*
G01X6267600D01*
X6361700Y4743600D01*
Y3143900D01*
X6290100Y3072200D01*
X6290500Y3069700D01*
G02X6234700Y2938500I-131015J-21745D01*
G01Y2776500D01*
G02X6061900Y2577000I-75173J-109474D01*
G03X6044200Y2570000I-7491J-6937D01*
G01Y2444100D01*
X6135300Y2353100D01*
X6137800Y2353500D01*
G02X6234700Y2113000I21724J-131018D01*
G01Y1760500D01*
G37*
G36*
G01X5218700D02*
G02X5068300I-75200J-109500D01*
G01Y2120900D01*
G02X5261000Y2269000I75174J101603D01*
G03X5280000I9500J3796D01*
G02Y2176000I117500J-46500D01*
G03X5261000I-9500J-3796D01*
G02X5218700Y2120900I-117544J46451D01*
G01Y1760500D01*
G37*
G54D18*
X1206500Y5778500D03*
X4699000Y5588000D03*
G54D19*
X889000Y5778500D03*
X1397000Y3746500D03*
X4699000Y3048000D03*
X5778500Y5588000D03*
X8064500Y3048000D03*
X8382000Y4699000D03*
G54D20*
X1397000Y4000500D03*
X4445000Y3048000D03*
G54D21*
X3937000Y3238500D03*
X6985000Y6350000D03*
%LPD*%
G75*
G54D10*
X500000Y500000D03*
Y6500000D03*
X9500000Y500000D03*
Y6500000D03*
G54D11*
X500000Y3492000D03*
Y3746000D03*
Y4000000D03*
X889000Y5778500D03*
X635000D03*
X1397000Y4000500D03*
Y3746500D03*
X1810000Y4468000D03*
Y4722000D03*
Y4976000D03*
X2572000Y4468000D03*
Y4722000D03*
Y4976000D03*
Y5230000D03*
X2222500Y6159500D03*
X2476500Y6413500D03*
X2730500Y6159500D03*
X3790000Y4428000D03*
Y4682000D03*
Y4936000D03*
X4445000Y3048000D03*
X4699000D03*
X4552000Y4428000D03*
Y4682000D03*
Y4936000D03*
Y5190000D03*
X5397500Y2222500D03*
X5143500D03*
X5778500Y5588000D03*
Y5334000D03*
X6032500Y4254500D03*
Y4508500D03*
Y4762500D03*
X6794500Y4254500D03*
Y4508500D03*
Y4762500D03*
Y5016500D03*
X8064500Y3048000D03*
X8318500D03*
X8382000Y4191000D03*
Y4445000D03*
Y4699000D03*
X9144000Y4191000D03*
X9500000Y3754000D03*
Y3500000D03*
X9144000Y4445000D03*
Y4699000D03*
Y4953000D03*
G54D12*
X1206500Y5778500D03*
X1651000Y3238500D03*
X2667000D03*
X2222500Y5778500D03*
X3937000Y2222500D03*
Y3238500D03*
X3683000Y5588000D03*
X4699000D03*
X5143500Y1651000D03*
X6159500D03*
Y2222500D03*
Y2667000D03*
Y3048000D03*
X7175500Y2222500D03*
Y2667000D03*
Y3048000D03*
X6985000Y5334000D03*
Y6350000D03*
X9080500Y5334000D03*
Y6350000D03*
G54D13*
X1650000Y2250000D03*
X2940000Y2230000D03*
G54D14*
X1904000Y2250000D03*
X2158000D03*
X3194000Y2230000D03*
X3448000D03*
G54D15*
X1810000Y5230000D03*
X3790000Y5190000D03*
X6032500Y5016500D03*
X8382000Y4953000D03*
G54D16*
G01X1650000Y2250000D02*
X1397000Y2503000D01*
G01D02*
Y3746500D01*
G01D02*
X1206500Y3937000D01*
G01D02*
Y5778500D01*
G01X2158000Y2250000D02*
Y2408000D01*
X2159000Y2409000D01*
Y4318000D01*
X2009000Y4468000D01*
X1810000D01*
G01X3448000Y2230000D02*
Y4957000D01*
X3429000Y4976000D01*
X2572000D01*
G01X3138000Y2032000D02*
X2940000Y2230000D01*
G01X4699000Y2132000D02*
X4599000Y2032000D01*
X3138000D01*
G01X4699000Y3048000D02*
Y2132000D01*
G01Y3187000D02*
Y3048000D01*
G01Y5257500D02*
X4703600Y5252900D01*
Y3191600D01*
X4699000Y3187000D01*
G01Y5588000D02*
Y5257500D01*
G01X5778500Y5334000D02*
Y4354500D01*
X5878500Y4254500D01*
X6032500D01*
G01X8064500Y4381500D02*
Y3048000D01*
G01X9144000Y4699000D02*
X8953500Y4508500D01*
Y3148000D01*
X8853500Y3048000D01*
X8318500D01*
G01X8382000Y4699000D02*
X8064500Y4381500D01*
G54D17*
G01X500000Y3492000D02*
X635000Y3357000D01*
Y2145500D01*
X685000Y2095500D01*
X1841500D01*
X1904000Y2158000D01*
Y2250000D01*
G01X635000Y5778500D02*
Y3542000D01*
X585000Y3492000D01*
X500000D01*
G01X889000Y5659700D02*
Y5778500D01*
G01D02*
Y5897300D01*
G01X770200Y5778500D02*
X889000D01*
G01D02*
X1007800D01*
G01X1081300D02*
X1206500D01*
G01X1650000Y2250000D02*
Y2387900D01*
G01X1512100Y2250000D02*
X1650000D01*
G01X1651000Y3238500D02*
Y4699000D01*
X1674000Y4722000D01*
X1810000D01*
G01X1397000Y3746500D02*
Y3865300D01*
G01X1278200Y3746500D02*
X1397000D01*
G01D02*
X1515800D01*
G01X2222500Y5778500D02*
X2018500D01*
X1968500Y5728500D01*
Y5066500D01*
X1918500Y5016500D01*
X1850500D01*
X1810000Y4976000D01*
G01X1206500Y5778500D02*
Y5903700D01*
G01Y5778500D02*
X1331700D01*
G01X2572000Y4722000D02*
X2453800D01*
X2417800Y4686000D01*
Y3292700D01*
X2472000Y3238500D01*
X2667000D01*
G01X2572000Y4722000D02*
X2445400Y4848600D01*
Y6128400D01*
X2476500Y6159500D01*
X2730500D01*
G01X2476500Y6413500D02*
X2730500Y6159500D01*
G01X2222500D02*
Y5778500D01*
G01X2940000Y2092100D02*
Y2230000D01*
G01D02*
Y2367900D01*
G01X2802100Y2230000D02*
X2940000D01*
G01X3937000Y2222500D02*
X3669500D01*
X3619500Y2272500D01*
Y4649000D01*
X3669500Y4699000D01*
X3773000D01*
X3790000Y4682000D01*
G01Y4936000D02*
X3773000Y4953000D01*
X3669500D01*
X3619500Y5003000D01*
Y5524500D01*
X3683000Y5588000D01*
G01X4580200Y3048000D02*
X4699000D01*
G01D02*
X4817800D01*
G01X4699000Y5588000D02*
Y5713200D01*
G01X4573800Y5588000D02*
X4699000D01*
G01D02*
X4824200D01*
G01X5143500Y2222500D02*
Y1651000D01*
G01X5659700Y5588000D02*
X5778500D01*
G01X6159500Y2222500D02*
Y1651000D01*
G01Y2222500D02*
X5969000Y2413000D01*
Y3111600D01*
X6159500Y3302100D01*
Y4445000D01*
X6096000Y4508500D01*
X6032500D01*
G01X6159500Y3048000D02*
Y2667000D01*
G01Y3048000D02*
X6286500Y3175000D01*
Y4712500D01*
X6236500Y4762500D01*
X6032500D01*
G01X5778500Y5469200D02*
Y5588000D01*
G01D02*
Y5706800D01*
G01Y5588000D02*
X5897300D01*
G01X7175500Y2667000D02*
Y2222500D01*
G01X6935000Y4508500D02*
X6985000Y4458500D01*
Y2730500D01*
X7048500Y2667000D01*
X7175500D01*
G01Y2922800D02*
Y3048000D01*
G01D02*
Y3173200D01*
G01Y3048000D02*
X7300700D01*
G01X6935000Y4508500D02*
X6794500D01*
G01X6985000Y5334000D02*
Y4558500D01*
X6935000Y4508500D01*
G01X6985000Y5397500D02*
Y5334000D01*
G01X7945700Y3048000D02*
X8064500D01*
G01Y2929200D02*
Y3048000D01*
G01D02*
X8183300D01*
G01X9080500Y6350000D02*
X8813000D01*
X8763000Y6300000D01*
Y4508400D01*
X8699600Y4445000D01*
X8382000D01*
G01Y4580200D02*
Y4699000D01*
G01D02*
Y4817800D01*
G01X8263200Y4699000D02*
X8382000D01*
G01D02*
X8500800D01*
G01X9500000Y3754000D02*
Y3872800D01*
G01X9284500Y4445000D02*
X9334500Y4395000D01*
Y3542500D01*
X9384500Y3492500D01*
X9492500D01*
X9500000Y3500000D01*
G01X9284500Y4445000D02*
X9334500Y4495000D01*
Y5220500D01*
X9221000Y5334000D01*
X9080500D01*
G01X9144000Y4445000D02*
X9284500D01*
M02*
