G04 ================== begin FILE IDENTIFICATION RECORD ==================*
G04 Layout Name:  C:/Users/user/Desktop/OSCILLATOR/OSCILLATOR.brd*
G04 Film Name:    design*
G04 File Format:  Gerber RS274X*
G04 File Origin:  Cadence Allegro 17.2-P019*
G04 Origin Date:  Thu Aug 01 11:48:32 2019*
G04 *
G04 Layer:  BOARD GEOMETRY/DIMENSION*
G04 Layer:  VIA CLASS/BOTTOM*
G04 Layer:  VIA CLASS/TOP*
G04 Layer:  ROUTE KEEPIN/ALL*
G04 Layer:  REF DES/SILKSCREEN_TOP*
G04 Layer:  REF DES/SILKSCREEN_BOTTOM*
G04 Layer:  PIN/BOTTOM*
G04 Layer:  PIN/TOP*
G04 Layer:  PACKAGE KEEPIN/ALL*
G04 Layer:  PACKAGE GEOMETRY/PIN_NUMBER*
G04 Layer:  PACKAGE GEOMETRY/SILKSCREEN_TOP*
G04 Layer:  PACKAGE GEOMETRY/SILKSCREEN_BOTTOM*
G04 Layer:  PACKAGE GEOMETRY/SOLDERMASK_TOP*
G04 Layer:  PACKAGE GEOMETRY/SOLDERMASK_BOTTOM*
G04 Layer:  PACKAGE GEOMETRY/PASTEMASK_TOP*
G04 Layer:  PACKAGE GEOMETRY/PASTEMASK_BOTTOM*
G04 Layer:  MANUFACTURING/PHOTOPLOT_OUTLINE*
G04 Layer:  MANUFACTURING/NCLEGEND-1-2*
G04 Layer:  ETCH/BOTTOM*
G04 Layer:  ETCH/TOP*
G04 Layer:  BOARD GEOMETRY/SILKSCREEN_TOP*
G04 Layer:  BOARD GEOMETRY/SILKSCREEN_BOTTOM*
G04 Layer:  BOARD GEOMETRY/SOLDERMASK_TOP*
G04 Layer:  BOARD GEOMETRY/SOLDERMASK_BOTTOM*
G04 Layer:  BOARD GEOMETRY/DESIGN_OUTLINE*
G04 *
G04 Offset:    (0.000 0.000)*
G04 Mirror:    No*
G04 Mode:      Positive*
G04 Rotation:  0*
G04 FullContactRelief:  No*
G04 UndefLineWidth:     0.000*
G04 ================== end FILE IDENTIFICATION RECORD ====================*
%FSLAX25Y25*MOMM*%
%IR0*IPPOS*OFA0.00000B0.00000*MIA0B0*SFA1.00000B1.00000*%
%ADD13C,1.524*%
%ADD15C,1.651*%
%ADD19C,1.905*%
%ADD20R,1.524X1.524*%
%ADD17R,1.905X1.905*%
%AMMACRO18*
1,1,0.0,.686,0.0*
20,1,0.0,.686,0.0,.675578,-.119123,0.0*
1,1,0.0,.675578,-.119123*
20,1,0.0,.675578,-.119123,.644629,-.234626,0.0*
1,1,0.0,.644629,-.234626*
20,1,0.0,.644629,-.234626,.594093,-.343,0.0*
1,1,0.0,.594093,-.343*
20,1,0.0,.594093,-.343,.525506,-.440952,0.0*
1,1,0.0,.525506,-.440952*
20,1,0.0,.525506,-.440952,.440952,-.525506,0.0*
1,1,0.0,.440952,-.525506*
20,1,0.0,.440952,-.525506,.343,-.594093,0.0*
1,1,0.0,.343,-.594093*
20,1,0.0,.343,-.594093,.234626,-.644629,0.0*
1,1,0.0,.234626,-.644629*
20,1,0.0,.234626,-.644629,.119123,-.675578,0.0*
1,1,0.0,.119123,-.675578*
20,1,0.0,.119123,-.675578,0.0,-.686,0.0*
1,1,0.0,0.0,-.686*
20,1,0.0,0.0,-.686,-.119123,-.675578,0.0*
1,1,0.0,-.119123,-.675578*
20,1,0.0,-.119123,-.675578,-.234626,-.644629,0.0*
1,1,0.0,-.234626,-.644629*
20,1,0.0,-.234626,-.644629,-.343,-.594093,0.0*
1,1,0.0,-.343,-.594093*
20,1,0.0,-.343,-.594093,-.440952,-.525506,0.0*
1,1,0.0,-.440952,-.525506*
20,1,0.0,-.440952,-.525506,-.525506,-.440952,0.0*
1,1,0.0,-.525506,-.440952*
20,1,0.0,-.525506,-.440952,-.594093,-.343,0.0*
1,1,0.0,-.594093,-.343*
20,1,0.0,-.594093,-.343,-.644629,-.234626,0.0*
1,1,0.0,-.644629,-.234626*
20,1,0.0,-.644629,-.234626,-.675578,-.119123,0.0*
1,1,0.0,-.675578,-.119123*
20,1,0.0,-.675578,-.119123,-.686,0.0,0.0*
1,1,0.0,-.686,0.0*
20,1,0.0,-.686,0.0,-.675578,.119123,0.0*
1,1,0.0,-.675578,.119123*
20,1,0.0,-.675578,.119123,-.644629,.234626,0.0*
1,1,0.0,-.644629,.234626*
20,1,0.0,-.644629,.234626,-.594093,.343,0.0*
1,1,0.0,-.594093,.343*
20,1,0.0,-.594093,.343,-.525506,.440952,0.0*
1,1,0.0,-.525506,.440952*
20,1,0.0,-.525506,.440952,-.440952,.525506,0.0*
1,1,0.0,-.440952,.525506*
20,1,0.0,-.440952,.525506,-.343,.594093,0.0*
1,1,0.0,-.343,.594093*
20,1,0.0,-.343,.594093,-.234626,.644629,0.0*
1,1,0.0,-.234626,.644629*
20,1,0.0,-.234626,.644629,-.119123,.675578,0.0*
1,1,0.0,-.119123,.675578*
20,1,0.0,-.119123,.675578,0.0,.686,0.0*
1,1,0.0,0.0,.686*
20,1,0.0,0.0,.686,.119123,.675578,0.0*
1,1,0.0,.119123,.675578*
20,1,0.0,.119123,.675578,.234626,.644629,0.0*
1,1,0.0,.234626,.644629*
20,1,0.0,.234626,.644629,.343,.594093,0.0*
1,1,0.0,.343,.594093*
20,1,0.0,.343,.594093,.440952,.525506,0.0*
1,1,0.0,.440952,.525506*
20,1,0.0,.440952,.525506,.525506,.440952,0.0*
1,1,0.0,.525506,.440952*
20,1,0.0,.525506,.440952,.594093,.343,0.0*
1,1,0.0,.594093,.343*
20,1,0.0,.594093,.343,.644629,.234626,0.0*
1,1,0.0,.644629,.234626*
20,1,0.0,.644629,.234626,.675578,.119123,0.0*
1,1,0.0,.675578,.119123*
20,1,0.0,.675578,.119123,.686,0.0,0.0*
1,1,0.0,.686,0.0*
1,1,0.0,-.286,-.343*
20,1,0.0,-.286,-.343,0.0,.343,0.0*
1,1,0.0,0.0,.343*
20,1,0.0,0.0,.343,.286,-.343,0.0*
1,1,0.0,.286,-.343*
1,1,0.0,.183,-.103*
20,1,0.0,.183,-.103,-.183,-.103,0.0*
1,1,0.0,-.183,-.103*
%
%ADD18MACRO18*%
%AMMACRO16*
1,1,0.0,-.508,.3175*
20,1,0.0,-.508,.3175,-.500282,.405713,0.0*
1,1,0.0,-.500282,.405713*
20,1,0.0,-.500282,.405713,-.477364,.491246,0.0*
1,1,0.0,-.477364,.491246*
20,1,0.0,-.477364,.491246,-.439941,.5715,0.0*
1,1,0.0,-.439941,.5715*
20,1,0.0,-.439941,.5715,-.389151,.644036,0.0*
1,1,0.0,-.389151,.644036*
20,1,0.0,-.389151,.644036,-.326536,.706651,0.0*
1,1,0.0,-.326536,.706651*
20,1,0.0,-.326536,.706651,-.254,.757441,0.0*
1,1,0.0,-.254,.757441*
20,1,0.0,-.254,.757441,-.173746,.794864,0.0*
1,1,0.0,-.173746,.794864*
20,1,0.0,-.173746,.794864,-.088213,.817782,0.0*
1,1,0.0,-.088213,.817782*
20,1,0.0,-.088213,.817782,0.0,.8255,0.0*
1,1,0.0,0.0,.8255*
20,1,0.0,0.0,.8255,.088213,.817782,0.0*
1,1,0.0,.088213,.817782*
20,1,0.0,.088213,.817782,.173746,.794864,0.0*
1,1,0.0,.173746,.794864*
20,1,0.0,.173746,.794864,.254,.757441,0.0*
1,1,0.0,.254,.757441*
20,1,0.0,.254,.757441,.326536,.706651,0.0*
1,1,0.0,.326536,.706651*
20,1,0.0,.326536,.706651,.389151,.644036,0.0*
1,1,0.0,.389151,.644036*
20,1,0.0,.389151,.644036,.439941,.5715,0.0*
1,1,0.0,.439941,.5715*
20,1,0.0,.439941,.5715,.477364,.491246,0.0*
1,1,0.0,.477364,.491246*
20,1,0.0,.477364,.491246,.500282,.405713,0.0*
1,1,0.0,.500282,.405713*
20,1,0.0,.500282,.405713,.508,.3175,0.0*
1,1,0.0,.508,.3175*
20,1,0.0,.508,.3175,.508,-.3175,0.0*
1,1,0.0,.508,-.3175*
20,1,0.0,.508,-.3175,.500282,-.405713,0.0*
1,1,0.0,.500282,-.405713*
20,1,0.0,.500282,-.405713,.477364,-.491246,0.0*
1,1,0.0,.477364,-.491246*
20,1,0.0,.477364,-.491246,.439941,-.5715,0.0*
1,1,0.0,.439941,-.5715*
20,1,0.0,.439941,-.5715,.389151,-.644036,0.0*
1,1,0.0,.389151,-.644036*
20,1,0.0,.389151,-.644036,.326536,-.706651,0.0*
1,1,0.0,.326536,-.706651*
20,1,0.0,.326536,-.706651,.254,-.757441,0.0*
1,1,0.0,.254,-.757441*
20,1,0.0,.254,-.757441,.173746,-.794864,0.0*
1,1,0.0,.173746,-.794864*
20,1,0.0,.173746,-.794864,.088213,-.817782,0.0*
1,1,0.0,.088213,-.817782*
20,1,0.0,.088213,-.817782,0.0,-.8255,0.0*
1,1,0.0,0.0,-.8255*
20,1,0.0,0.0,-.8255,-.088213,-.817782,0.0*
1,1,0.0,-.088213,-.817782*
20,1,0.0,-.088213,-.817782,-.173746,-.794864,0.0*
1,1,0.0,-.173746,-.794864*
20,1,0.0,-.173746,-.794864,-.254,-.757441,0.0*
1,1,0.0,-.254,-.757441*
20,1,0.0,-.254,-.757441,-.326536,-.706651,0.0*
1,1,0.0,-.326536,-.706651*
20,1,0.0,-.326536,-.706651,-.389151,-.644036,0.0*
1,1,0.0,-.389151,-.644036*
20,1,0.0,-.389151,-.644036,-.439941,-.5715,0.0*
1,1,0.0,-.439941,-.5715*
20,1,0.0,-.439941,-.5715,-.477364,-.491246,0.0*
1,1,0.0,-.477364,-.491246*
20,1,0.0,-.477364,-.491246,-.500282,-.405713,0.0*
1,1,0.0,-.500282,-.405713*
20,1,0.0,-.500282,-.405713,-.508,-.3175,0.0*
1,1,0.0,-.508,-.3175*
20,1,0.0,-.508,-.3175,-.508,.3175,0.0*
1,1,0.0,-.508,.3175*
%
%ADD16MACRO16*%
%AMMACRO14*
1,1,0.0,.635,0.0*
20,1,0.0,.635,0.0,.3175,.549926,0.0*
1,1,0.0,.3175,.549926*
20,1,0.0,.3175,.549926,-.3175,.549926,0.0*
1,1,0.0,-.3175,.549926*
20,1,0.0,-.3175,.549926,-.635,0.0,0.0*
1,1,0.0,-.635,0.0*
20,1,0.0,-.635,0.0,-.3175,-.549926,0.0*
1,1,0.0,-.3175,-.549926*
20,1,0.0,-.3175,-.549926,.3175,-.549926,0.0*
1,1,0.0,.3175,-.549926*
20,1,0.0,.3175,-.549926,.635,0.0,0.0*
1,1,0.0,.635,0.0*
%
%ADD14MACRO14*%
%ADD12C,.61*%
%ADD10C,.635*%
%AMMACRO11*
1,1,0.0,-.666,-.952*
20,1,0.0,-.666,-.952,.667,.953,0.0*
1,1,0.0,.667,.953*
1,1,0.0,-.666,.953*
20,1,0.0,-.666,.953,.667,-.952,0.0*
1,1,0.0,.667,-.952*
%
%ADD11MACRO11*%
%ADD21C,1.*%
%ADD22C,.203*%
%ADD23C,.5*%
%ADD27C,2.402*%
%ADD26C,2.274*%
%ADD25C,2.528*%
%ADD24C,2.656*%
%ADD30R,2.004X1.504*%
%ADD28R,1.504X2.004*%
%ADD29R,3.469X3.409*%
G75*
%LPD*%
G75*
G36*
G01X754200Y500000D02*
Y754200D01*
X500000D01*
Y3365600D01*
G03X518000Y3366900I-82J126394D01*
G01X518700Y3367000D01*
G03X500000Y3618400I-18700J125005D01*
G01Y3632300D01*
G03Y3859700I0J113700D01*
G01Y3873600D01*
G03X601600Y3924800I0J126406D01*
G01X710200D01*
Y4075200D01*
X601600D01*
G03X500000Y4126400I-101600J-75206D01*
G01Y5723000D01*
G02X519500Y5727100I10190J-42D01*
G03X710200Y5676900I115490J51408D01*
G03X519500Y5829900I-75217J101594D01*
G02X500000Y5834000I-9310J4142D01*
G01Y6245800D01*
X754200D01*
Y6500000D01*
X2363200D01*
G02X2371700Y6484100I23J-10209D01*
G03X2492700Y6288100I104822J-70638D01*
G01X2495200Y6288500D01*
G03X2601500Y6394800I-18683J124983D01*
G01X2601800Y6396800D01*
G03X2602900Y6413500I-125287J16639D01*
G03X2581300Y6484100I-126381J-62D01*
G02X2589800Y6500000I8477J5691D01*
G01X9245800D01*
Y6245800D01*
X9500000D01*
Y3867700D01*
G03X9386300Y3754000I5J-113705D01*
G03X9500000Y3640300I113700J0D01*
G01Y3626400D01*
G03Y3373600I0J-126400D01*
G01Y754200D01*
X9245800D01*
Y500000D01*
X754200D01*
G37*
%LPC*%
G75*
G36*
G01X8971000Y6425200D02*
G02Y6274800I109500J-75200D01*
G01X8687800D01*
Y6331100D01*
X8781900Y6425200D01*
X8971000D01*
G37*
G36*
G01X2846400Y6109000D02*
G02X2637600Y6073800I-115885J50525D01*
G02X2711800Y6284500I92906J85698D01*
G01X2712500Y6284600D01*
G02X2846400Y6109000I18016J-125114D01*
G37*
G36*
G01X3698600Y5456100D02*
G02X3552200Y5564900I-15609J131894D01*
G01X3552000Y5566300D01*
G02X3699200Y5456200I131007J21701D01*
G01X3698600Y5456100D01*
G37*
G36*
G01X9183100Y5249700D02*
G02X8947800Y5328300I-102608J84331D01*
G02X9183400Y5250000I132697J5674D01*
G03X9183100Y5249700I7020J-7320D01*
G37*
G36*
G01X8838200Y5146500D02*
Y4863100D01*
X8687800Y5013500D01*
Y5243700D01*
X8741000D01*
X8838200Y5146500D01*
G37*
G36*
G01X8458200Y4826600D02*
X8305800D01*
G02X8255600Y4876800I0J50200D01*
G01Y5029200D01*
G02X8305800Y5079400I50200J0D01*
G01X8458200D01*
G02X8508400Y5029200I0J-50200D01*
G01Y4876800D01*
G02X8458200Y4826600I-50200J0D01*
G37*
G36*
G01X4598500Y4545500D02*
G02X4505500I-46500J-117500D01*
G03Y4564500I-3796J9500D01*
G02Y4799500I46500J117500D01*
G03Y4818500I-3796J9500D01*
G02Y5053500I46500J117500D01*
G03Y5072500I-3796J9500D01*
G02X4598500I46500J117500D01*
G03Y5053500I3796J-9500D01*
G02Y4818500I-46500J-117500D01*
G03Y4799500I3796J-9500D01*
G02Y4564500I-46500J-117500D01*
G03Y4545500I3796J-9500D01*
G37*
G36*
G01X2493000Y4216200D02*
X2342600D01*
Y4416600D01*
X2441800D01*
G03X2451500Y4429900I-22J10204D01*
G02X2525500Y4585500I120507J38086D01*
G03Y4604500I-3796J9500D01*
G02Y4839500I46500J117500D01*
G03Y4858500I-3796J9500D01*
G02Y5093500I46500J117500D01*
G03Y5112500I-3796J9500D01*
G02X2533300Y5350300I46497J117503D01*
G03X2533900Y5350500I-2926J9779D01*
G02X2675800Y5302100I38105J-120494D01*
G02X2694300Y5261800I-103825J-72058D01*
G03X2694400Y5261400I9954J2276D01*
G02X2618500Y5112500I-122407J-31399D01*
G03Y5093500I3796J-9500D01*
G02X2649100Y5076200I-46303J-117612D01*
G01X3470500D01*
X3526900Y5019800D01*
G03X3544300Y5027000I7202J7220D01*
G01Y5441800D01*
X3694700D01*
Y5325900D01*
G03X3706400Y5315900I10181J67D01*
G02X3713800Y5316400I7076J-49722D01*
G01X3866200D01*
G02X3916400Y5266200I0J-50200D01*
G01Y5113800D01*
G02X3866200Y5063600I-50200J0D01*
G01X3859800D01*
G03X3854600Y5044600I-6J-10210D01*
G02X3836500Y4818500I-64628J-108601D01*
G03Y4799500I3796J-9500D01*
G02Y4564500I-46500J-117500D01*
G03Y4545500I3796J-9500D01*
G02X3711200Y4329100I-46542J-117527D01*
G03X3694700Y4321200I-6321J-7978D01*
G01Y4216200D01*
X3347800D01*
Y4875800D01*
X2649100D01*
G02X2618500Y4858500I-76903J100312D01*
G03Y4839500I3796J-9500D01*
G02Y4604500I-46500J-117500D01*
G03Y4585500I3796J-9500D01*
G02X2508300Y4358800I-46488J-117536D01*
G03X2493000Y4350000I-5110J-8816D01*
G01Y4216200D01*
G37*
G36*
G01X2259200D02*
X2058800D01*
Y4276500D01*
X1967500Y4367800D01*
X1887100D01*
G02X1793700Y4342600I-77127J100174D01*
G01X1793600Y4342700D01*
X1792000Y4342900D01*
G02X1763500Y4585500I18030J125092D01*
G03Y4604500I-3796J9500D01*
G02Y4839500I46500J117500D01*
G03Y4858500I-3796J9500D01*
G02X1745400Y5084600I46528J117499D01*
G03X1740200Y5103600I-5194J8790D01*
G01X1733800D01*
G02X1683600Y5153800I0J50200D01*
G01Y5306200D01*
G02X1733800Y5356400I50200J0D01*
G01X1886200D01*
G02X1936400Y5306200I0J-50200D01*
G01Y5153800D01*
G02X1886200Y5103600I-50200J0D01*
G01X1879800D01*
G03X1874600Y5084600I-6J-10210D01*
G02X1856500Y4858500I-64628J-108601D01*
G03Y4839500I3796J-9500D01*
G02Y4604500I-46500J-117500D01*
G03Y4585500I3796J-9500D01*
G02X1935100Y4486000I-46493J-117522D01*
G01X1935300Y4484400D01*
X2003100Y4416600D01*
X2202100D01*
X2259200Y4359500D01*
Y4216200D01*
G37*
G36*
G01X6891800Y4173800D02*
G02X6748000Y4372000I-97299J80673D01*
G03Y4391000I-3796J9500D01*
G02Y4626000I46500J117500D01*
G03Y4645000I-3796J9500D01*
G02Y4880000I46500J117500D01*
G03Y4899000I-3796J9500D01*
G02X6672000Y5047500I46521J117507D01*
G03X6672200Y5048300I-9804J2876D01*
G02X6916800I122300J-31800D01*
G03X6933900Y5043600I9891J2529D01*
G01X7060200Y5169900D01*
Y4886500D01*
X6919800Y4746100D01*
X6919600Y4744500D01*
G02X6841000Y4645000I-125093J18022D01*
G03Y4626000I3796J-9500D01*
G02Y4391000I-46500J-117500D01*
G03Y4372000I3796J-9500D01*
G02X6896900Y4180400I-46503J-117522D01*
G03X6895100Y4176400I8195J-6093D01*
G03X6891800Y4173800I4525J-9138D01*
G37*
G36*
G01X9190500Y4308500D02*
G02X9097500I-46500J-117500D01*
G03Y4327500I-3796J9500D01*
G02Y4562500I46500J117500D01*
G03Y4581500I-3796J9500D01*
G02X9018900Y4681000I46493J117522D01*
G01X9018700Y4682600D01*
X9002300Y4699000D01*
X9018700Y4715400D01*
X9018900Y4717000D01*
G02X9097500Y4816500I125093J-18022D01*
G03Y4835500I-3796J9500D01*
G02X9021500Y4984000I46521J117507D01*
G03X9021700Y4984800I-9804J2876D01*
G02X9190500Y4835500I122316J-31782D01*
G03Y4816500I3796J-9500D01*
G02Y4581500I-46500J-117500D01*
G03Y4562500I3796J-9500D01*
G02Y4327500I-46500J-117500D01*
G03Y4308500I3796J-9500D01*
G37*
G36*
G01X8479300Y4110400D02*
G02X8335500Y4308500I-97316J80600D01*
G03Y4327500I-3796J9500D01*
G02X8428500I46500J117500D01*
G03Y4308500I3796J-9500D01*
G02X8479300Y4110400I-46539J-117498D01*
G37*
G36*
G01X6361700Y3963800D02*
X6181500D01*
X6084300Y4061000D01*
Y4124400D01*
G03X6071000Y4134100I-10195J-11D01*
G02X6016200Y4129100I-38612J120384D01*
G01X6016100Y4129200D01*
X6014500Y4129400D01*
G02X5955400Y4154300I17924J125129D01*
G01X5837000D01*
X5678300Y4313000D01*
Y5256900D01*
G02X5663100Y5282300I100148J77179D01*
G03X5663000Y5282600I-9675J-3058D01*
G02X5894000I115500J51400D01*
G03X5893900Y5282300I9575J-3358D01*
G02X5878700Y5256900I-115348J51779D01*
G01Y4396000D01*
X5920000Y4354700D01*
X5955400D01*
X5956800Y4355700D01*
G02X5986000Y4372000I75660J-101233D01*
G03Y4391000I-3796J9500D01*
G02Y4626000I46500J117500D01*
G03Y4645000I-3796J9500D01*
G02X5967900Y4871100I46528J117499D01*
G03X5962700Y4890100I-5194J8790D01*
G01X5956300D01*
G02X5906100Y4940300I0J50200D01*
G01Y5092700D01*
G02X5956300Y5142900I50200J0D01*
G01X6108700D01*
G02X6158900Y5092700I0J-50200D01*
G01Y4940300D01*
G02X6108700Y4890100I-50200J0D01*
G01X6102300D01*
G03X6097100Y4871100I-6J-10210D01*
G02X6134100Y4837700I-64526J-108675D01*
G01X6267600D01*
X6361700Y4743600D01*
Y3963800D01*
G37*
G36*
G01X1415000Y3875400D02*
G02X1326700Y3895500I-17961J125100D01*
G02X1295800Y3924800I70275J105057D01*
G02X1522100Y3982500I101201J75714D01*
G01X1522000Y3981800D01*
G02X1415700Y3875500I-125000J18700D01*
G01X1415000Y3875400D01*
G37*
G36*
G01X1598800Y3662900D02*
X1575800Y3639900D01*
Y3928000D01*
X1598800Y3905000D01*
Y3662900D01*
G37*
G36*
G01X1421200Y3857600D02*
G02X1347200Y3644300I-24188J-111095D01*
G02X1420100Y3857800I49850J102175D01*
G01X1421200Y3857600D01*
G37*
G36*
G01X1672700Y3107500D02*
G02X1782000Y3216800I-21700J131000D01*
G01X1781600Y3214300D01*
G02X1675200Y3107900I-130600J24200D01*
G01X1672700Y3107500D01*
G37*
G36*
G01X4026400Y3140300D02*
G02X4031100Y3332200I-89402J98197D01*
G02X4027000Y3140900I-94127J-93677D01*
G03X4026400Y3140300I6914J-7514D01*
G37*
G36*
G01X2776500Y3313700D02*
G02X2577800Y3140100I-109513J-75168D01*
G03X2577000Y3140900I-7614J-6814D01*
G02X2736800Y3351500I90043J97604D01*
G02X2776500Y3313700I-69774J-113029D01*
G37*
G36*
G01X6290400Y3025700D02*
G02X6290300Y3071100I-130899J22412D01*
G01X6290500Y3069700D01*
G02X6290400Y3025700I-131017J-21702D01*
G37*
G36*
G01X6253200Y2572900D02*
G02X6061900Y2577000I-93677J94127D01*
G03X6061300Y2577600I-7514J-6914D01*
G02X6253200Y2572900I98197J89402D01*
G37*
G36*
G01X2284100Y2322500D02*
G02X2039300Y2165800I-126139J-72509D01*
G03X2022700I-8300J-5870D01*
G02X1798700Y2149600I-118675J84195D01*
G03X1781500Y2145100I-7337J-7079D01*
G02X1745300Y2117200I-36266J9621D01*
G01X1554800D01*
G02X1517200Y2154800I-50J37550D01*
G01Y2345200D01*
G02X1554800Y2382800I37550J50D01*
G01X1745300D01*
G02X1781500Y2354900I-66J-37521D01*
G03X1798700Y2350400I9863J2579D01*
G02X2022700Y2334200I105325J-100395D01*
G03X2039300I8300J5870D01*
G02X2057800Y2355500I118595J-84321D01*
G01Y2449500D01*
X2058800Y2450500D01*
Y2488200D01*
X2259200D01*
Y2367500D01*
X2258200Y2366500D01*
Y2355500D01*
X2259700Y2354000D01*
G02X2283900Y2322900I-101676J-104083D01*
G03X2284100Y2322500I9218J4359D01*
G37*
G36*
G01X5261000Y2176000D02*
G02X5041900Y2147300I-117522J46508D01*
G02Y2297700I101577J75200D01*
G02X5261000Y2269000I101578J-75208D01*
G03X5280000I9500J3796D01*
G02Y2176000I117500J-46500D01*
G03X5261000I-9500J-3796D01*
G37*
G36*
G01X6234700Y2113000D02*
G02X6084300I-75200J109500D01*
G02X6028500Y2244200I75215J109455D01*
G01X6028900Y2246700D01*
X5977900Y2297700D01*
X6050000D01*
G02X6135300Y2353100I109488J-75211D01*
G01X6137800Y2353500D01*
G02X6286300Y2182800I21746J-131026D01*
G02X6234700Y2113000I-126764J39738D01*
G37*
G36*
G01X3593500Y2230000D02*
G02X3329300Y2145800I-145513J-15D01*
G03X3312700I-8300J-5870D01*
G02X3088700Y2129600I-118675J84195D01*
G03X3071500Y2125100I-7337J-7079D01*
G02X3035300Y2097200I-36266J9621D01*
G01X2844800D01*
G02X2807200Y2134800I-50J37550D01*
G01Y2325200D01*
G02X2807300Y2327100I37494J-1021D01*
G03Y2328000I-10187J450D01*
G02X2844800Y2362800I37449J-2750D01*
G01X3035300D01*
G02X3071500Y2334900I-66J-37521D01*
G03X3088700Y2330400I9863J2579D01*
G02X3250200Y2364200I105301J-100407D01*
G02X3312700Y2314200I-56136J-134233D01*
G03X3329300I8300J5870D01*
G02X3347800Y2335500I118595J-84321D01*
G02X3593500Y2230000I100200J-105500D01*
G37*
G54D27*
X1206500Y5778500D03*
X4699000Y5588000D03*
X7175500Y3048000D03*
G54D26*
X889000Y5778500D03*
X5778500Y5588000D03*
X8382000Y4699000D03*
X8064500Y3048000D03*
X4699000D03*
G54D25*
X2222500Y6159500D03*
X8318500Y3048000D03*
X4445000D03*
G54D24*
X6985000Y6350000D03*
X2222500Y5778500D03*
X6985000Y5334000D03*
X7175500Y2667000D03*
Y2222500D03*
X3937000D03*
X6159500Y1651000D03*
X5143500D03*
G54D30*
X2159000Y3048000D03*
G54D28*
X6985000Y4064000D03*
G54D29*
X3521250Y3143250D03*
%LPD*%
G75*
G54D10*
X500000Y500000D03*
D03*
Y6500000D03*
D03*
X9500000Y500000D03*
D03*
Y6500000D03*
D03*
G54D11*
X500000Y500000D03*
Y6500000D03*
X9500000Y500000D03*
Y6500000D03*
X11012900Y115900D03*
G54D20*
X1810000Y5230000D03*
D03*
X3790000Y5190000D03*
D03*
X6032500Y5016500D03*
D03*
X8382000Y4953000D03*
D03*
G54D21*
G01X1258000Y3746000D02*
X500000D01*
G01X889000Y5778500D02*
X1206500D01*
G01X1650000Y2250000D02*
Y2223500D01*
X1794200Y2079300D01*
G01X1397000Y3746500D02*
Y2503000D01*
G01X1794200Y2079300D02*
X2777800D01*
G01X1397000Y2503000D02*
X1650000Y2250000D01*
G01X1397000Y3746500D02*
X1258000D01*
G01X1206500Y5778500D02*
Y3937000D01*
G01X1258000Y3746500D02*
Y3746000D01*
G01X1206500Y3937000D02*
X1397000Y3746500D01*
G01X2158000Y2250000D02*
Y2408000D01*
X2159000Y2409000D01*
Y4318000D01*
X2009000Y4468000D01*
X1810000D01*
G01X3790000Y4428000D02*
X3678400Y4316400D01*
X1961600D01*
X1810000Y4468000D01*
G01X4552000Y4936000D02*
X4146400Y5341600D01*
X2937600D01*
X2572000Y4976000D01*
G01X3448000Y2230000D02*
Y4957000D01*
X3429000Y4976000D01*
X2572000D01*
G01X2940000Y2230000D02*
X3138000Y2032000D01*
G01X2777800Y2079300D02*
X2928500Y2230000D01*
X2940000D01*
G01X3138000Y2032000D02*
X4599000D01*
X4699000Y2132000D01*
G01X6032500Y4254500D02*
X3963500D01*
X3790000Y4428000D01*
G01X4699000Y2132000D02*
Y3048000D01*
G01D02*
Y3187000D01*
G01X4889500Y3238500D02*
X4699000Y3048000D01*
G01X6985000Y3238500D02*
X4889500D01*
G01X4699000Y3187000D02*
X4703600Y3191600D01*
Y5252900D01*
X4699000Y5257500D01*
G01X6794500Y4762500D02*
X6540500Y5016500D01*
Y5080000D01*
X6452400Y5168100D01*
X4784100D01*
X4552000Y4936000D01*
G01X4699000Y5588000D02*
X5778500D01*
G01X4699000Y5257500D02*
Y5588000D01*
G01X6032500Y4254500D02*
X6223000Y4064000D01*
X8255000D01*
X8382000Y4191000D01*
G01X5778500Y5334000D02*
Y4354500D01*
X5878500Y4254500D01*
X6032500D01*
G01X7175500Y3048000D02*
X8064500D01*
G01X7175500D02*
X6985000Y3238500D01*
G01X9144000Y4699000D02*
X8699500Y5143500D01*
X7175500D01*
X6794500Y4762500D01*
G01X8064500Y3048000D02*
Y4381500D01*
G01X9144000Y4699000D02*
X8953500Y4508500D01*
Y3148000D01*
X8853500Y3048000D01*
X8318500D01*
G01X9500000Y3754000D02*
X8672500D01*
G01D02*
X8572500Y3854000D01*
Y4508500D01*
G01D02*
X8382000Y4699000D01*
G01X8064500Y4381500D02*
X8382000Y4699000D01*
G54D12*
X300400Y855600D03*
D03*
Y1871600D03*
D03*
Y1363600D03*
D03*
Y2379600D03*
D03*
Y3395600D03*
D03*
Y2887600D03*
D03*
Y3903600D03*
D03*
Y4919600D03*
D03*
Y4411600D03*
D03*
Y5427600D03*
D03*
Y5935600D03*
D03*
X808400Y347600D03*
D03*
Y855600D03*
D03*
Y1363600D03*
D03*
Y1871600D03*
D03*
Y2379600D03*
D03*
Y2887600D03*
D03*
Y3395600D03*
D03*
Y3903600D03*
D03*
Y4411600D03*
D03*
Y4919600D03*
D03*
Y5427600D03*
D03*
Y5935600D03*
D03*
Y6443600D03*
D03*
X1824400Y347600D03*
D03*
X1316400D03*
D03*
Y855600D03*
D03*
X1824400D03*
D03*
X1316400Y1363600D03*
D03*
X1824400D03*
D03*
X1316400Y1871600D03*
D03*
X1824400D03*
D03*
X1316400Y2379600D03*
D03*
X1824400Y2887600D03*
D03*
Y3395600D03*
D03*
Y3903600D03*
D03*
X1316400Y4411600D03*
D03*
Y4919600D03*
D03*
Y5427600D03*
D03*
X1824400D03*
D03*
X1316400Y5935600D03*
D03*
X1824400D03*
D03*
X1316400Y6443600D03*
D03*
X1824400D03*
D03*
X2332400Y347600D03*
D03*
Y855600D03*
D03*
Y1363600D03*
D03*
Y1871600D03*
D03*
Y2887600D03*
D03*
Y3395600D03*
D03*
Y3903600D03*
D03*
Y4919600D03*
D03*
Y5427600D03*
D03*
Y5935600D03*
D03*
Y6443600D03*
D03*
X3348400Y347600D03*
D03*
X2840400D03*
D03*
Y855600D03*
D03*
X3348400D03*
D03*
X2840400Y1363600D03*
D03*
X3348400D03*
D03*
X2840400Y1871600D03*
D03*
X3348400D03*
D03*
X2840400Y2887600D03*
D03*
Y3395600D03*
D03*
Y3903600D03*
D03*
Y5427600D03*
D03*
Y5935600D03*
D03*
X3348400D03*
D03*
X2840400Y6443600D03*
D03*
X3348400D03*
D03*
X3856400Y347600D03*
D03*
Y855600D03*
D03*
Y1363600D03*
D03*
Y1871600D03*
D03*
Y2379600D03*
D03*
Y2887600D03*
D03*
Y3395600D03*
D03*
Y3903600D03*
D03*
Y5935600D03*
D03*
Y6443600D03*
D03*
X4872400Y347600D03*
D03*
X4364400D03*
D03*
Y855600D03*
D03*
X4872400D03*
D03*
X4364400Y1363600D03*
D03*
X4872400D03*
D03*
X4364400Y1871600D03*
D03*
X4872400D03*
D03*
X4364400Y2379600D03*
D03*
X4872400D03*
D03*
X4364400Y2887600D03*
D03*
X4872400D03*
D03*
X4364400Y3395600D03*
D03*
X4872400D03*
D03*
X4364400Y3903600D03*
D03*
X4872400D03*
D03*
X4364400Y4411600D03*
D03*
X4872400D03*
D03*
X4364400Y4919600D03*
D03*
X4872400D03*
D03*
X4364400Y5427600D03*
D03*
X4872400D03*
D03*
X4364400Y5935600D03*
D03*
X4872400D03*
D03*
X4364400Y6443600D03*
D03*
X4872400D03*
D03*
X5380400Y347600D03*
D03*
Y855600D03*
D03*
Y1363600D03*
D03*
Y1871600D03*
D03*
Y2379600D03*
D03*
Y2887600D03*
D03*
Y3395600D03*
D03*
Y3903600D03*
D03*
Y4411600D03*
D03*
Y4919600D03*
D03*
Y5427600D03*
D03*
Y5935600D03*
D03*
Y6443600D03*
D03*
X6396400Y347600D03*
D03*
X5888400D03*
D03*
Y855600D03*
D03*
X6396400D03*
D03*
X5888400Y1363600D03*
D03*
X6396400D03*
D03*
X5888400Y1871600D03*
D03*
X6396400D03*
D03*
X5888400Y2379600D03*
D03*
X6396400D03*
D03*
Y2887600D03*
D03*
X5888400Y3395600D03*
D03*
X6396400D03*
D03*
X5888400Y3903600D03*
D03*
X6396400D03*
D03*
X5888400Y4411600D03*
D03*
X6396400D03*
D03*
X5888400Y4919600D03*
D03*
X6396400D03*
D03*
X5888400Y5427600D03*
D03*
X6396400D03*
D03*
X5888400Y5935600D03*
D03*
X6396400D03*
D03*
X5888400Y6443600D03*
D03*
X6396400D03*
D03*
X6904400Y347600D03*
D03*
Y855600D03*
D03*
Y1363600D03*
D03*
Y1871600D03*
D03*
Y2379600D03*
D03*
Y5935600D03*
D03*
X7920400Y347600D03*
D03*
X7412400D03*
D03*
Y855600D03*
D03*
X7920400D03*
D03*
X7412400Y1363600D03*
D03*
X7920400D03*
D03*
X7412400Y1871600D03*
D03*
X7920400D03*
D03*
X7412400Y2379600D03*
D03*
X7920400D03*
D03*
X7412400Y2887600D03*
D03*
X7920400D03*
D03*
X7412400Y3395600D03*
D03*
X7920400D03*
D03*
X7412400Y3903600D03*
D03*
X7920400D03*
D03*
X7412400Y4411600D03*
D03*
X7920400D03*
D03*
X7412400Y4919600D03*
D03*
X7920400D03*
D03*
X7412400Y5427600D03*
D03*
X7920400D03*
D03*
X7412400Y5935600D03*
D03*
X7920400D03*
D03*
X7412400Y6443600D03*
D03*
X7920400D03*
D03*
X8428400Y347600D03*
D03*
Y855600D03*
D03*
Y1363600D03*
D03*
Y1871600D03*
D03*
Y2379600D03*
D03*
Y2887600D03*
D03*
Y3395600D03*
D03*
Y3903600D03*
D03*
Y5427600D03*
D03*
Y5935600D03*
D03*
Y6443600D03*
D03*
X8936400Y347600D03*
D03*
Y855600D03*
D03*
X9444400D03*
D03*
X8936400Y1363600D03*
D03*
X9444400D03*
D03*
X8936400Y1871600D03*
D03*
X9444400D03*
D03*
X8936400Y2379600D03*
D03*
X9444400D03*
D03*
X8936400Y2887600D03*
D03*
X9444400D03*
D03*
Y3903600D03*
D03*
Y4411600D03*
D03*
Y4919600D03*
D03*
X8936400Y5427600D03*
D03*
X9444400D03*
D03*
X8936400Y5935600D03*
D03*
X9444400D03*
D03*
X8936400Y6443600D03*
D03*
G54D22*
G01X1370600Y2542100D02*
Y1970600D01*
G01D02*
X2437400D01*
G01Y2542100D02*
X1370600D01*
G01Y2402400D02*
X2437400D01*
G01Y1970600D02*
Y2542100D01*
G01X2660600Y2522100D02*
Y1950600D01*
G01D02*
X3727400D01*
G01Y2522100D02*
X2660600D01*
G01Y2382400D02*
X3727400D01*
G01Y1950600D02*
Y2522100D01*
G54D13*
X500000Y3492000D03*
D03*
Y3746000D03*
D03*
Y4000000D03*
D03*
X889000Y5778500D03*
D03*
X635000D03*
D03*
X1397000Y4000500D03*
D03*
Y3746500D03*
D03*
X1810000Y4468000D03*
D03*
Y4722000D03*
D03*
Y4976000D03*
D03*
X2572000Y4468000D03*
D03*
Y4722000D03*
D03*
Y4976000D03*
D03*
Y5230000D03*
D03*
X2222500Y6159500D03*
D03*
X2476500Y6413500D03*
D03*
X2730500Y6159500D03*
D03*
X3790000Y4428000D03*
D03*
Y4682000D03*
D03*
Y4936000D03*
D03*
X4445000Y3048000D03*
D03*
X4699000D03*
D03*
X4552000Y4428000D03*
D03*
Y4682000D03*
D03*
Y4936000D03*
D03*
Y5190000D03*
D03*
X5397500Y2222500D03*
D03*
X5143500D03*
D03*
X5778500Y5588000D03*
D03*
Y5334000D03*
D03*
X6032500Y4254500D03*
D03*
Y4508500D03*
D03*
Y4762500D03*
D03*
X6794500Y4254500D03*
D03*
Y4508500D03*
D03*
Y4762500D03*
D03*
Y5016500D03*
D03*
X8064500Y3048000D03*
D03*
X8318500D03*
D03*
X8382000Y4191000D03*
D03*
Y4445000D03*
D03*
Y4699000D03*
D03*
X9144000Y4191000D03*
D03*
X9500000Y3754000D03*
D03*
Y3500000D03*
D03*
X9144000Y4445000D03*
D03*
Y4699000D03*
D03*
Y4953000D03*
D03*
G54D23*
G01X500000Y3492000D02*
X635000Y3357000D01*
Y2145500D01*
X685000Y2095500D01*
X1841500D01*
X1904000Y2158000D01*
Y2250000D01*
G01X500000Y3627200D02*
Y3746000D01*
G01D02*
Y3864800D01*
G01Y4000000D02*
X1283000D01*
Y4000500D01*
X1397000D01*
G01X635000Y5778500D02*
Y3542000D01*
X585000Y3492000D01*
X500000D01*
G01X889000Y5659700D02*
Y5778500D01*
G01Y5659700D02*
Y5778500D01*
G01D02*
Y5897300D01*
G01X770200Y5778500D02*
X889000D01*
G01D02*
Y5897300D01*
G01X770200Y5778500D02*
X889000D01*
G01D02*
X1007800D01*
G01X1081300D02*
X1206500D01*
G01X1650000Y2250000D02*
Y2387900D01*
G01X1512100Y2250000D02*
X1650000D01*
G01X1397000Y4000500D02*
X1523600Y3873900D01*
Y3694000D01*
X1397000Y3567400D01*
Y2463000D01*
X1447000Y2413000D01*
X3125000D01*
X3175000Y2363000D01*
Y2249000D01*
X3194000Y2230000D01*
G01X1651000Y3238500D02*
Y4699000D01*
X1674000Y4722000D01*
X1810000D01*
G01X4445000Y3048000D02*
X1841500D01*
X1651000Y3238500D01*
G01X1397000Y3746500D02*
Y3865300D01*
G01X1278200Y3746500D02*
X1397000D01*
G01D02*
X1515800D01*
G01X2222500Y5778500D02*
X2018500D01*
X1968500Y5728500D01*
Y5066500D01*
X1918500Y5016500D01*
X1850500D01*
X1810000Y4976000D01*
G01X1206500Y5653300D02*
Y5778500D01*
G01D02*
Y5903700D01*
G01Y5778500D02*
X1331700D01*
G01X1206500D02*
Y5903700D01*
G01Y5778500D02*
X1331700D01*
G01X2572000Y4722000D02*
X2453800D01*
X2417800Y4686000D01*
Y3292700D01*
X2472000Y3238500D01*
X2667000D01*
G01X2572000Y4722000D02*
X2445400Y4848600D01*
Y6128400D01*
X2476500Y6159500D01*
X2730500D01*
G01X2476500Y6413500D02*
X2730500Y6159500D01*
G01X2222500D02*
Y5778500D01*
G01X2940000Y2092100D02*
Y2230000D01*
G01D02*
Y2367900D01*
G01X2802100Y2230000D02*
X2940000D01*
G01X2667000Y3238500D02*
X3937000D01*
G01Y2222500D02*
X5143500D01*
G01X3937000D02*
X3669500D01*
X3619500Y2272500D01*
Y4649000D01*
X3669500Y4699000D01*
X3773000D01*
X3790000Y4682000D01*
G01Y4936000D02*
X3773000Y4953000D01*
X3669500D01*
X3619500Y5003000D01*
Y5524500D01*
X3683000Y5588000D01*
G01X4699000Y2929200D02*
Y3048000D01*
G01D02*
Y3166800D01*
G01X4580200Y3048000D02*
X4699000D01*
G01D02*
X4817800D01*
G01X4580200D02*
X4699000D01*
G01D02*
X4817800D01*
G01X4552000Y4682000D02*
X5859000D01*
X6032500Y4508500D01*
G01X4699000Y5462800D02*
Y5588000D01*
G01D02*
Y5713200D01*
G01X4573800Y5588000D02*
X4699000D01*
G01D02*
Y5713200D01*
G01X4573800Y5588000D02*
X4699000D01*
G01D02*
X4824200D01*
G01X5143500Y2222500D02*
Y1651000D01*
G01X5397500Y2222500D02*
X6159500D01*
G01X5659700Y5588000D02*
X5778500D01*
G01X6159500Y2222500D02*
Y1651000D01*
G01Y2222500D02*
X5969000Y2413000D01*
Y3111600D01*
X6159500Y3302100D01*
Y4445000D01*
X6096000Y4508500D01*
X6032500D01*
G01X6159500Y3048000D02*
Y2667000D01*
G01Y3048000D02*
X6286500Y3175000D01*
Y4712500D01*
X6236500Y4762500D01*
X6032500D01*
G01X5778500Y5469200D02*
Y5588000D01*
G01D02*
Y5706800D01*
G01Y5588000D02*
X5897300D01*
G01X5778500Y5469200D02*
Y5588000D01*
G01D02*
Y5706800D01*
G01Y5588000D02*
X5897300D01*
G01X7175500Y2667000D02*
Y2222500D01*
G01X6935000Y4508500D02*
X6985000Y4458500D01*
Y2730500D01*
X7048500Y2667000D01*
X7175500D01*
G01Y2922800D02*
Y3048000D01*
G01D02*
Y3173200D01*
G01X7050300Y3048000D02*
X7175500D01*
G01Y2922800D02*
Y3048000D01*
G01D02*
Y3173200D01*
G01Y3048000D02*
X7300700D01*
G01X6935000Y4508500D02*
X6794500D01*
G01X6985000Y5334000D02*
Y4558500D01*
X6935000Y4508500D01*
G01X6985000Y5397500D02*
Y5334000D01*
G01Y6350000D02*
X9080500D01*
G01X7945700Y3048000D02*
X8064500D01*
G01Y2929200D02*
Y3048000D01*
G01D02*
Y3166800D01*
G01Y3048000D02*
X8183300D01*
G01X8064500Y2929200D02*
Y3048000D01*
G01D02*
X8183300D01*
G01X9080500Y6350000D02*
X8813000D01*
X8763000Y6300000D01*
Y4508400D01*
X8699600Y4445000D01*
X8382000D01*
G01Y4580200D02*
Y4699000D01*
G01D02*
Y4817800D01*
G01X8263200Y4699000D02*
X8382000D01*
G01D02*
X8500800D01*
G01X8382000Y4580200D02*
Y4699000D01*
G01D02*
Y4817800D01*
G01X8263200Y4699000D02*
X8382000D01*
G01D02*
X8500800D01*
G01X9500000Y3635200D02*
Y3754000D01*
G01D02*
Y3872800D01*
G01X9284500Y4445000D02*
X9334500Y4395000D01*
Y3542500D01*
X9384500Y3492500D01*
X9492500D01*
X9500000Y3500000D01*
G01X9284500Y4445000D02*
X9334500Y4495000D01*
Y5220500D01*
X9221000Y5334000D01*
X9080500D01*
G01X9144000Y4445000D02*
X9284500D01*
G54D14*
X500000Y3492000D03*
Y3746000D03*
Y4000000D03*
X889000Y5778500D03*
X635000D03*
X1397000Y4000500D03*
Y3746500D03*
X1810000Y4468000D03*
Y4722000D03*
Y4976000D03*
Y5230000D03*
X2572000Y4468000D03*
Y4722000D03*
Y4976000D03*
Y5230000D03*
X2222500Y6159500D03*
X2476500Y6413500D03*
X2730500Y6159500D03*
X3790000Y4428000D03*
Y4682000D03*
Y4936000D03*
Y5190000D03*
X4445000Y3048000D03*
X4699000D03*
X4552000Y4428000D03*
Y4682000D03*
Y4936000D03*
Y5190000D03*
X5397500Y2222500D03*
X5143500D03*
X5778500Y5588000D03*
Y5334000D03*
X6032500Y4254500D03*
Y4508500D03*
Y4762500D03*
Y5016500D03*
X6794500Y4254500D03*
Y4508500D03*
Y4762500D03*
Y5016500D03*
X8064500Y3048000D03*
X8318500D03*
X8382000Y4191000D03*
Y4445000D03*
Y4699000D03*
Y4953000D03*
X9144000Y4191000D03*
X9500000Y3754000D03*
Y3500000D03*
X9144000Y4445000D03*
Y4699000D03*
Y4953000D03*
X11012900Y973100D03*
G54D15*
X1206500Y5778500D03*
D03*
X1651000Y3238500D03*
D03*
X2667000D03*
D03*
X2222500Y5778500D03*
D03*
X3937000Y2222500D03*
D03*
Y3238500D03*
D03*
X3683000Y5588000D03*
D03*
X4699000D03*
D03*
X5143500Y1651000D03*
D03*
X6159500D03*
D03*
Y2222500D03*
D03*
Y2667000D03*
D03*
Y3048000D03*
D03*
X7175500Y2222500D03*
D03*
Y2667000D03*
D03*
Y3048000D03*
D03*
X6985000Y5334000D03*
D03*
Y6350000D03*
D03*
X9080500Y5334000D03*
D03*
Y6350000D03*
D03*
G54D16*
X1206500Y5778500D03*
X1651000Y3238500D03*
X2667000D03*
X2222500Y5778500D03*
X3937000Y2222500D03*
Y3238500D03*
X3683000Y5588000D03*
X4699000D03*
X5143500Y1651000D03*
X6159500D03*
Y2222500D03*
Y2667000D03*
Y3048000D03*
X7175500Y2222500D03*
Y2667000D03*
Y3048000D03*
X6985000Y5334000D03*
Y6350000D03*
X9080500Y5334000D03*
Y6350000D03*
X11012900Y687400D03*
G54D17*
X1650000Y2250000D03*
D03*
X2940000Y2230000D03*
D03*
G54D18*
X1650000Y2250000D03*
X1904000D03*
X2158000D03*
X2940000Y2230000D03*
X3194000D03*
X3448000D03*
X11012900Y401600D03*
G54D19*
X1904000Y2250000D03*
D03*
X2158000D03*
D03*
X3194000Y2230000D03*
D03*
X3448000D03*
D03*
M02*
