G04 ================== begin FILE IDENTIFICATION RECORD ==================*
G04 Layout Name:  C:/Users/user/Desktop/OSCILLATOR/OSCILLATOR.brd*
G04 Film Name:    DrillDraw*
G04 File Format:  Gerber RS274X*
G04 File Origin:  Cadence Allegro 17.2-P019*
G04 Origin Date:  Thu Aug 01 11:48:32 2019*
G04 *
G04 Layer:  MANUFACTURING/NCLEGEND-1-2*
G04 Layer:  BOARD GEOMETRY/DESIGN_OUTLINE*
G04 *
G04 Offset:    (0.000 0.000)*
G04 Mirror:    No*
G04 Mode:      Positive*
G04 Rotation:  0*
G04 FullContactRelief:  No*
G04 UndefLineWidth:     0.100*
G04 ================== end FILE IDENTIFICATION RECORD ====================*
%FSLAX25Y25*MOMM*%
%IR0*IPPOS*OFA0.00000B0.00000*MIA0B0*SFA1.00000B1.00000*%
%AMMACRO13*
1,1,.1,.686,0.0*
20,1,.1,.686,0.0,.675578,-.119123,0.0*
1,1,.1,.675578,-.119123*
20,1,.1,.675578,-.119123,.644629,-.234626,0.0*
1,1,.1,.644629,-.234626*
20,1,.1,.644629,-.234626,.594093,-.343,0.0*
1,1,.1,.594093,-.343*
20,1,.1,.594093,-.343,.525506,-.440952,0.0*
1,1,.1,.525506,-.440952*
20,1,.1,.525506,-.440952,.440952,-.525506,0.0*
1,1,.1,.440952,-.525506*
20,1,.1,.440952,-.525506,.343,-.594093,0.0*
1,1,.1,.343,-.594093*
20,1,.1,.343,-.594093,.234626,-.644629,0.0*
1,1,.1,.234626,-.644629*
20,1,.1,.234626,-.644629,.119123,-.675578,0.0*
1,1,.1,.119123,-.675578*
20,1,.1,.119123,-.675578,0.0,-.686,0.0*
1,1,.1,0.0,-.686*
20,1,.1,0.0,-.686,-.119123,-.675578,0.0*
1,1,.1,-.119123,-.675578*
20,1,.1,-.119123,-.675578,-.234626,-.644629,0.0*
1,1,.1,-.234626,-.644629*
20,1,.1,-.234626,-.644629,-.343,-.594093,0.0*
1,1,.1,-.343,-.594093*
20,1,.1,-.343,-.594093,-.440952,-.525506,0.0*
1,1,.1,-.440952,-.525506*
20,1,.1,-.440952,-.525506,-.525506,-.440952,0.0*
1,1,.1,-.525506,-.440952*
20,1,.1,-.525506,-.440952,-.594093,-.343,0.0*
1,1,.1,-.594093,-.343*
20,1,.1,-.594093,-.343,-.644629,-.234626,0.0*
1,1,.1,-.644629,-.234626*
20,1,.1,-.644629,-.234626,-.675578,-.119123,0.0*
1,1,.1,-.675578,-.119123*
20,1,.1,-.675578,-.119123,-.686,0.0,0.0*
1,1,.1,-.686,0.0*
20,1,.1,-.686,0.0,-.675578,.119123,0.0*
1,1,.1,-.675578,.119123*
20,1,.1,-.675578,.119123,-.644629,.234626,0.0*
1,1,.1,-.644629,.234626*
20,1,.1,-.644629,.234626,-.594093,.343,0.0*
1,1,.1,-.594093,.343*
20,1,.1,-.594093,.343,-.525506,.440952,0.0*
1,1,.1,-.525506,.440952*
20,1,.1,-.525506,.440952,-.440952,.525506,0.0*
1,1,.1,-.440952,.525506*
20,1,.1,-.440952,.525506,-.343,.594093,0.0*
1,1,.1,-.343,.594093*
20,1,.1,-.343,.594093,-.234626,.644629,0.0*
1,1,.1,-.234626,.644629*
20,1,.1,-.234626,.644629,-.119123,.675578,0.0*
1,1,.1,-.119123,.675578*
20,1,.1,-.119123,.675578,0.0,.686,0.0*
1,1,.1,0.0,.686*
20,1,.1,0.0,.686,.119123,.675578,0.0*
1,1,.1,.119123,.675578*
20,1,.1,.119123,.675578,.234626,.644629,0.0*
1,1,.1,.234626,.644629*
20,1,.1,.234626,.644629,.343,.594093,0.0*
1,1,.1,.343,.594093*
20,1,.1,.343,.594093,.440952,.525506,0.0*
1,1,.1,.440952,.525506*
20,1,.1,.440952,.525506,.525506,.440952,0.0*
1,1,.1,.525506,.440952*
20,1,.1,.525506,.440952,.594093,.343,0.0*
1,1,.1,.594093,.343*
20,1,.1,.594093,.343,.644629,.234626,0.0*
1,1,.1,.644629,.234626*
20,1,.1,.644629,.234626,.675578,.119123,0.0*
1,1,.1,.675578,.119123*
20,1,.1,.675578,.119123,.686,0.0,0.0*
1,1,.1,.686,0.0*
1,1,.1,-.286,-.343*
20,1,.1,-.286,-.343,0.0,.343,0.0*
1,1,.1,0.0,.343*
20,1,.1,0.0,.343,.286,-.343,0.0*
1,1,.1,.286,-.343*
1,1,.1,.183,-.103*
20,1,.1,.183,-.103,-.183,-.103,0.0*
1,1,.1,-.183,-.103*
%
%ADD13MACRO13*%
%AMMACRO12*
1,1,.1,-.508,.3175*
20,1,.1,-.508,.3175,-.500282,.405713,0.0*
1,1,.1,-.500282,.405713*
20,1,.1,-.500282,.405713,-.477364,.491246,0.0*
1,1,.1,-.477364,.491246*
20,1,.1,-.477364,.491246,-.439941,.5715,0.0*
1,1,.1,-.439941,.5715*
20,1,.1,-.439941,.5715,-.389151,.644036,0.0*
1,1,.1,-.389151,.644036*
20,1,.1,-.389151,.644036,-.326536,.706651,0.0*
1,1,.1,-.326536,.706651*
20,1,.1,-.326536,.706651,-.254,.757441,0.0*
1,1,.1,-.254,.757441*
20,1,.1,-.254,.757441,-.173746,.794864,0.0*
1,1,.1,-.173746,.794864*
20,1,.1,-.173746,.794864,-.088213,.817782,0.0*
1,1,.1,-.088213,.817782*
20,1,.1,-.088213,.817782,0.0,.8255,0.0*
1,1,.1,0.0,.8255*
20,1,.1,0.0,.8255,.088213,.817782,0.0*
1,1,.1,.088213,.817782*
20,1,.1,.088213,.817782,.173746,.794864,0.0*
1,1,.1,.173746,.794864*
20,1,.1,.173746,.794864,.254,.757441,0.0*
1,1,.1,.254,.757441*
20,1,.1,.254,.757441,.326536,.706651,0.0*
1,1,.1,.326536,.706651*
20,1,.1,.326536,.706651,.389151,.644036,0.0*
1,1,.1,.389151,.644036*
20,1,.1,.389151,.644036,.439941,.5715,0.0*
1,1,.1,.439941,.5715*
20,1,.1,.439941,.5715,.477364,.491246,0.0*
1,1,.1,.477364,.491246*
20,1,.1,.477364,.491246,.500282,.405713,0.0*
1,1,.1,.500282,.405713*
20,1,.1,.500282,.405713,.508,.3175,0.0*
1,1,.1,.508,.3175*
20,1,.1,.508,.3175,.508,-.3175,0.0*
1,1,.1,.508,-.3175*
20,1,.1,.508,-.3175,.500282,-.405713,0.0*
1,1,.1,.500282,-.405713*
20,1,.1,.500282,-.405713,.477364,-.491246,0.0*
1,1,.1,.477364,-.491246*
20,1,.1,.477364,-.491246,.439941,-.5715,0.0*
1,1,.1,.439941,-.5715*
20,1,.1,.439941,-.5715,.389151,-.644036,0.0*
1,1,.1,.389151,-.644036*
20,1,.1,.389151,-.644036,.326536,-.706651,0.0*
1,1,.1,.326536,-.706651*
20,1,.1,.326536,-.706651,.254,-.757441,0.0*
1,1,.1,.254,-.757441*
20,1,.1,.254,-.757441,.173746,-.794864,0.0*
1,1,.1,.173746,-.794864*
20,1,.1,.173746,-.794864,.088213,-.817782,0.0*
1,1,.1,.088213,-.817782*
20,1,.1,.088213,-.817782,0.0,-.8255,0.0*
1,1,.1,0.0,-.8255*
20,1,.1,0.0,-.8255,-.088213,-.817782,0.0*
1,1,.1,-.088213,-.817782*
20,1,.1,-.088213,-.817782,-.173746,-.794864,0.0*
1,1,.1,-.173746,-.794864*
20,1,.1,-.173746,-.794864,-.254,-.757441,0.0*
1,1,.1,-.254,-.757441*
20,1,.1,-.254,-.757441,-.326536,-.706651,0.0*
1,1,.1,-.326536,-.706651*
20,1,.1,-.326536,-.706651,-.389151,-.644036,0.0*
1,1,.1,-.389151,-.644036*
20,1,.1,-.389151,-.644036,-.439941,-.5715,0.0*
1,1,.1,-.439941,-.5715*
20,1,.1,-.439941,-.5715,-.477364,-.491246,0.0*
1,1,.1,-.477364,-.491246*
20,1,.1,-.477364,-.491246,-.500282,-.405713,0.0*
1,1,.1,-.500282,-.405713*
20,1,.1,-.500282,-.405713,-.508,-.3175,0.0*
1,1,.1,-.508,-.3175*
20,1,.1,-.508,-.3175,-.508,.3175,0.0*
1,1,.1,-.508,.3175*
%
%ADD12MACRO12*%
%AMMACRO11*
1,1,.1,.635,0.0*
20,1,.1,.635,0.0,.3175,.549926,0.0*
1,1,.1,.3175,.549926*
20,1,.1,.3175,.549926,-.3175,.549926,0.0*
1,1,.1,-.3175,.549926*
20,1,.1,-.3175,.549926,-.635,0.0,0.0*
1,1,.1,-.635,0.0*
20,1,.1,-.635,0.0,-.3175,-.549926,0.0*
1,1,.1,-.3175,-.549926*
20,1,.1,-.3175,-.549926,.3175,-.549926,0.0*
1,1,.1,.3175,-.549926*
20,1,.1,.3175,-.549926,.635,0.0,0.0*
1,1,.1,.635,0.0*
%
%ADD11MACRO11*%
%AMMACRO10*
1,1,.1,-.666,-.952*
20,1,.1,-.666,-.952,.667,.953,0.0*
1,1,.1,.667,.953*
1,1,.1,-.666,.953*
20,1,.1,-.666,.953,.667,-.952,0.0*
1,1,.1,.667,-.952*
%
%ADD10MACRO10*%
%ADD14C,.1*%
G75*
%LPD*%
G75*
G54D10*
X500000Y500000D03*
Y6500000D03*
X9500000Y500000D03*
Y6500000D03*
X11012900Y115900D03*
G54D11*
X500000Y3492000D03*
Y3746000D03*
Y4000000D03*
X889000Y5778500D03*
X635000D03*
X1397000Y4000500D03*
Y3746500D03*
X1810000Y4468000D03*
Y4722000D03*
Y4976000D03*
Y5230000D03*
X2572000Y4468000D03*
Y4722000D03*
Y4976000D03*
Y5230000D03*
X2222500Y6159500D03*
X2476500Y6413500D03*
X2730500Y6159500D03*
X3790000Y4428000D03*
Y4682000D03*
Y4936000D03*
Y5190000D03*
X4445000Y3048000D03*
X4699000D03*
X4552000Y4428000D03*
Y4682000D03*
Y4936000D03*
Y5190000D03*
X5397500Y2222500D03*
X5143500D03*
X5778500Y5588000D03*
Y5334000D03*
X6032500Y4254500D03*
Y4508500D03*
Y4762500D03*
Y5016500D03*
X6794500Y4254500D03*
Y4508500D03*
Y4762500D03*
Y5016500D03*
X8064500Y3048000D03*
X8318500D03*
X8382000Y4191000D03*
Y4445000D03*
Y4699000D03*
Y4953000D03*
X9144000Y4191000D03*
X9500000Y3754000D03*
Y3500000D03*
X9144000Y4445000D03*
Y4699000D03*
Y4953000D03*
X11012900Y973100D03*
G54D12*
X1206500Y5778500D03*
X1651000Y3238500D03*
X2667000D03*
X2222500Y5778500D03*
X3937000Y2222500D03*
Y3238500D03*
X3683000Y5588000D03*
X4699000D03*
X5143500Y1651000D03*
X6159500D03*
Y2222500D03*
Y2667000D03*
Y3048000D03*
X7175500Y2222500D03*
Y2667000D03*
Y3048000D03*
X6985000Y5334000D03*
Y6350000D03*
X9080500Y5334000D03*
Y6350000D03*
X11012900Y687400D03*
G54D13*
X1650000Y2250000D03*
X1904000D03*
X2158000D03*
X2940000Y2230000D03*
X3194000D03*
X3448000D03*
X11012900Y401600D03*
G54D14*
G01X0Y0D02*
Y7000000D01*
X10000000D01*
Y0D01*
X0D01*
G01X10810000Y-27000D02*
Y2020000D01*
X13047000D01*
Y-27000D01*
X10810000D01*
G01Y258800D02*
X13047000D01*
G01X10810000Y830200D02*
X13047000D01*
G01X10810000Y544500D02*
X13047000D01*
G01X10860500Y1147800D02*
Y1211300D01*
X10886300D01*
G01X10876800Y1180600D02*
X10860500D01*
G01X10921100Y1211300D02*
X10937300D01*
G01X10929200D02*
Y1147800D01*
G01X10921100D02*
X10937300D01*
G01X10989100Y1179500D02*
X11002600D01*
Y1160500D01*
X10998500Y1154100D01*
X10993800Y1149900D01*
X10987000Y1147800D01*
X10980300Y1149900D01*
X10975500Y1154100D01*
X10971500Y1160500D01*
X10968800Y1167900D01*
X10967400Y1176400D01*
Y1183800D01*
X10968800Y1190100D01*
X10971500Y1197500D01*
X10975500Y1203900D01*
X10979600Y1208100D01*
X10985000Y1211300D01*
X10989700D01*
X10995100Y1209200D01*
X10999200Y1204900D01*
G01X11025900Y1211300D02*
Y1165800D01*
X11028600Y1156300D01*
X11034000Y1149900D01*
X11040800Y1147800D01*
X11047600Y1149900D01*
X11053000Y1156300D01*
X11055700Y1165800D01*
Y1211300D01*
G01X11083100Y1147800D02*
Y1211300D01*
X11100000D01*
X11105400Y1208100D01*
X11108800Y1203900D01*
X11110100Y1195400D01*
X11108800Y1187000D01*
X11104700Y1181700D01*
X11100000Y1178500D01*
X11083100D01*
G01X11100000D02*
X11110100Y1147800D01*
G01X11165900D02*
X11138900D01*
Y1211300D01*
X11165900D01*
G01X11155100Y1180600D02*
X11138900D01*
G01X10810000Y1370000D02*
X13047000D01*
G01X10810000Y1243000D02*
X13047000D01*
G01X10810000Y1116000D02*
X13047000D01*
G01X11543300Y96800D02*
X11547400Y89400D01*
X11552800Y85200D01*
X11558900Y84100D01*
X11564300Y85200D01*
X11569700Y90400D01*
X11573100Y96800D01*
X11573800Y103100D01*
X11572400Y110600D01*
X11567700Y115800D01*
X11562900Y118000D01*
X11556800D01*
G01X11562900D02*
X11567000Y121100D01*
X11570400Y126400D01*
X11571700Y132800D01*
X11570400Y139100D01*
X11567000Y144400D01*
X11560900Y147600D01*
X11554800Y146500D01*
X11548700Y142300D01*
G01X11614000Y82000D02*
X11612600Y83000D01*
Y85200D01*
X11614000Y86200D01*
X11615400Y85200D01*
Y83000D01*
X11614000Y82000D01*
G01X11669800Y84100D02*
Y147600D01*
X11661700Y134900D01*
G01Y84100D02*
X11677900D01*
G01X11724200D02*
X11725600Y97900D01*
X11727600Y109500D01*
X11730300Y120100D01*
X11733700Y131700D01*
X11739100Y147600D01*
X11712100D01*
G01X11766500Y93600D02*
X11770600Y88300D01*
X11775300Y85200D01*
X11781400Y84100D01*
X11787500Y86200D01*
X11792200Y90400D01*
X11795600Y97900D01*
X11796300Y106300D01*
X11794900Y114800D01*
X11791500Y120100D01*
X11786800Y124300D01*
X11782100Y125400D01*
X11777300Y124300D01*
X11771300Y120100D01*
X11773300Y147600D01*
X11791500D01*
G01X11215800Y1243000D02*
Y-27000D01*
G01X11558200Y1004900D02*
X11552800Y1002800D01*
X11548700Y997500D01*
X11546000Y991100D01*
X11544000Y982700D01*
X11543300Y973100D01*
X11544000Y963600D01*
X11546000Y955200D01*
X11548700Y948800D01*
X11552800Y943500D01*
X11558200Y941400D01*
X11563600Y943500D01*
X11567700Y948800D01*
X11570400Y955200D01*
X11572400Y963600D01*
X11573100Y973100D01*
X11572400Y982700D01*
X11570400Y991100D01*
X11567700Y997500D01*
X11563600Y1002800D01*
X11558200Y1004900D01*
G01X11614000Y939300D02*
X11612600Y940300D01*
Y942500D01*
X11614000Y943500D01*
X11615400Y942500D01*
Y940300D01*
X11614000Y939300D01*
G01X11658300Y948800D02*
X11663000Y943500D01*
X11668400Y941400D01*
X11673900Y943500D01*
X11678600Y949900D01*
X11682000Y959400D01*
X11683300Y968900D01*
Y980600D01*
X11682000Y990100D01*
X11678600Y998500D01*
X11674500Y1002800D01*
X11669800Y1004900D01*
X11664400Y1002800D01*
X11660300Y998500D01*
X11657600Y992200D01*
X11656300Y983700D01*
X11657600Y976300D01*
X11661000Y968900D01*
X11665100Y964700D01*
X11669800Y963600D01*
X11675200Y965700D01*
X11679300Y971000D01*
X11683300Y980600D01*
G01X11725600Y941400D02*
Y1004900D01*
X11717500Y992200D01*
G01Y941400D02*
X11733700D01*
G01X11789500D02*
Y1004900D01*
X11764500Y959400D01*
X11798300D01*
G01X11558200Y655600D02*
Y719100D01*
X11550100Y706400D01*
G01Y655600D02*
X11566300D01*
G01X11614000Y653500D02*
X11612600Y654500D01*
Y656700D01*
X11614000Y657700D01*
X11615400Y656700D01*
Y654500D01*
X11614000Y653500D01*
G01X11669800Y719100D02*
X11664400Y717000D01*
X11660300Y711700D01*
X11657600Y705300D01*
X11655600Y696900D01*
X11654900Y687300D01*
X11655600Y677800D01*
X11657600Y669400D01*
X11660300Y663000D01*
X11664400Y657700D01*
X11669800Y655600D01*
X11675200Y657700D01*
X11679300Y663000D01*
X11682000Y669400D01*
X11684000Y677800D01*
X11684700Y687300D01*
X11684000Y696900D01*
X11682000Y705300D01*
X11679300Y711700D01*
X11675200Y717000D01*
X11669800Y719100D01*
G01X11712700Y682100D02*
X11717500Y689500D01*
X11721500Y693700D01*
X11727000Y695800D01*
X11731700Y693700D01*
X11735100Y689500D01*
X11737800Y683100D01*
X11738500Y675700D01*
X11737800Y669400D01*
X11735100Y663000D01*
X11731000Y657700D01*
X11726300Y655600D01*
X11720900Y657700D01*
X11716100Y664100D01*
X11713400Y673600D01*
X11712700Y684200D01*
X11714100Y697900D01*
X11716100Y705300D01*
X11719500Y712700D01*
X11724200Y718000D01*
X11729000Y719100D01*
X11733700Y717000D01*
X11737100Y711700D01*
G01X11780000Y655600D02*
X11781400Y669400D01*
X11783400Y681000D01*
X11786100Y691600D01*
X11789500Y703200D01*
X11794900Y719100D01*
X11767900D01*
G01X11558200Y369900D02*
Y433400D01*
X11550100Y420700D01*
G01Y369900D02*
X11566300D01*
G01X11614000Y367800D02*
X11612600Y368800D01*
Y371000D01*
X11614000Y372000D01*
X11615400Y371000D01*
Y368800D01*
X11614000Y367800D01*
G01X11654900Y382600D02*
X11659000Y375200D01*
X11664400Y371000D01*
X11670500Y369900D01*
X11675900Y371000D01*
X11681300Y376200D01*
X11684700Y382600D01*
X11685400Y388900D01*
X11684000Y396400D01*
X11679300Y401600D01*
X11674500Y403800D01*
X11668400D01*
G01X11674500D02*
X11678600Y406900D01*
X11682000Y412200D01*
X11683300Y418600D01*
X11682000Y424900D01*
X11678600Y430200D01*
X11672500Y433400D01*
X11666400Y432300D01*
X11660300Y428100D01*
G01X11724200Y369900D02*
X11725600Y383700D01*
X11727600Y395300D01*
X11730300Y405900D01*
X11733700Y417500D01*
X11739100Y433400D01*
X11712100D01*
G01X11768500Y422800D02*
X11772600Y429200D01*
X11777300Y432300D01*
X11782800Y433400D01*
X11789500Y431300D01*
X11794300Y426000D01*
X11795600Y419600D01*
X11794900Y413300D01*
X11792200Y408000D01*
X11778700Y397400D01*
X11772600Y390000D01*
X11768500Y379400D01*
X11767200Y369900D01*
X11795600D01*
G01X11158300Y1274700D02*
X11175200Y1338200D01*
X11192100Y1274700D01*
G01X11186000Y1296900D02*
X11164400D01*
G01X11217500Y1338200D02*
Y1274700D01*
X11244500D01*
G01X11273300Y1338200D02*
Y1274700D01*
X11300300D01*
G01X11383500Y1338200D02*
Y1292700D01*
X11386200Y1283200D01*
X11391600Y1276800D01*
X11398400Y1274700D01*
X11405200Y1276800D01*
X11410600Y1283200D01*
X11413300Y1292700D01*
Y1338200D01*
G01X11438600Y1274700D02*
Y1338200D01*
X11469800Y1274700D01*
Y1338200D01*
G01X11501900D02*
X11518100D01*
G01X11510000D02*
Y1274700D01*
G01X11501900D02*
X11518100D01*
G01X11565800Y1338200D02*
Y1274700D01*
G01X11550200Y1338200D02*
X11581400D01*
G01X11607400Y1283200D02*
X11612800Y1277900D01*
X11618900Y1274700D01*
X11624300D01*
X11629700Y1277900D01*
X11633800Y1283200D01*
X11635800Y1290600D01*
X11634500Y1298000D01*
X11631100Y1304300D01*
X11625000Y1308600D01*
X11616900Y1310700D01*
X11612100Y1314900D01*
X11610100Y1322300D01*
X11611500Y1329700D01*
X11614800Y1335000D01*
X11619600Y1338200D01*
X11624300D01*
X11629000Y1336100D01*
X11633100Y1330800D01*
G01X11716300Y1274700D02*
X11733200Y1338200D01*
X11750100Y1274700D01*
G01X11744000Y1296900D02*
X11722400D01*
G01X11775500Y1274700D02*
Y1338200D01*
X11792400D01*
X11797800Y1335000D01*
X11801200Y1330800D01*
X11802500Y1322300D01*
X11801200Y1313900D01*
X11797100Y1308600D01*
X11792400Y1305400D01*
X11775500D01*
G01X11792400D02*
X11802500Y1274700D01*
G01X11858300D02*
X11831300D01*
Y1338200D01*
X11858300D01*
G01X11847500Y1307500D02*
X11831300D01*
G01X11948300Y1338200D02*
X11964500D01*
G01X11956400D02*
Y1274700D01*
G01X11948300D02*
X11964500D01*
G01X11996600D02*
Y1338200D01*
X12027800Y1274700D01*
Y1338200D01*
G01X12106200Y1274700D02*
Y1338200D01*
X12123800Y1285300D01*
X12141400Y1338200D01*
Y1274700D01*
G01X12171500Y1338200D02*
X12187700D01*
G01X12179600D02*
Y1274700D01*
G01X12171500D02*
X12187700D01*
G01X12221900Y1338200D02*
Y1274700D01*
X12248900D01*
G01X12277700Y1338200D02*
Y1274700D01*
X12304700D01*
G01X12338900Y1338200D02*
X12355100D01*
G01X12347000D02*
Y1274700D01*
G01X12338900D02*
X12355100D01*
G01X12385200D02*
Y1338200D01*
X12402800Y1285300D01*
X12420400Y1338200D01*
Y1274700D01*
G01X12472100D02*
X12445100D01*
Y1338200D01*
X12472100D01*
G01X12461300Y1307500D02*
X12445100D01*
G01X12514400Y1338200D02*
Y1274700D01*
G01X12498800Y1338200D02*
X12530000D01*
G01X12583700Y1274700D02*
X12556700D01*
Y1338200D01*
X12583700D01*
G01X12572900Y1307500D02*
X12556700D01*
G01X12612500Y1274700D02*
Y1338200D01*
X12629400D01*
X12634800Y1335000D01*
X12638200Y1330800D01*
X12639500Y1322300D01*
X12638200Y1313900D01*
X12634100Y1308600D01*
X12629400Y1305400D01*
X12612500D01*
G01X12629400D02*
X12639500Y1274700D01*
G01X12667600Y1283200D02*
X12673000Y1277900D01*
X12679100Y1274700D01*
X12684500D01*
X12689900Y1277900D01*
X12694000Y1283200D01*
X12696000Y1290600D01*
X12694700Y1298000D01*
X12691300Y1304300D01*
X12685200Y1308600D01*
X12677100Y1310700D01*
X12672300Y1314900D01*
X12670300Y1322300D01*
X12671700Y1329700D01*
X12675000Y1335000D01*
X12679800Y1338200D01*
X12684500D01*
X12689200Y1336100D01*
X12693300Y1330800D01*
G01X11322100Y1147800D02*
Y1211300D01*
X11347900D01*
G01X11338400Y1180600D02*
X11322100D01*
G01X11382700Y1211300D02*
X11398900D01*
G01X11390800D02*
Y1147800D01*
G01X11382700D02*
X11398900D01*
G01X11431000D02*
Y1211300D01*
X11462200Y1147800D01*
Y1211300D01*
G01X11494300D02*
X11510500D01*
G01X11502400D02*
Y1147800D01*
G01X11494300D02*
X11510500D01*
G01X11544000Y1156300D02*
X11549400Y1151000D01*
X11555500Y1147800D01*
X11560900D01*
X11566300Y1151000D01*
X11570400Y1156300D01*
X11572400Y1163700D01*
X11571100Y1171100D01*
X11567700Y1177400D01*
X11561600Y1181700D01*
X11553500Y1183800D01*
X11548700Y1188000D01*
X11546700Y1195400D01*
X11548100Y1202800D01*
X11551400Y1208100D01*
X11556200Y1211300D01*
X11560900D01*
X11565600Y1209200D01*
X11569700Y1203900D01*
G01X11599800Y1147800D02*
Y1211300D01*
G01X11628200D02*
Y1147800D01*
G01Y1179500D02*
X11599800D01*
G01X11683300Y1147800D02*
X11656300D01*
Y1211300D01*
X11683300D01*
G01X11672500Y1180600D02*
X11656300D01*
G01X11710700Y1147800D02*
Y1211300D01*
X11724200D01*
X11729700Y1208100D01*
X11733700Y1203900D01*
X11737100Y1197500D01*
X11739800Y1190100D01*
X11740500Y1179500D01*
X11739800Y1169000D01*
X11737100Y1161600D01*
X11733700Y1155200D01*
X11729700Y1151000D01*
X11724200Y1147800D01*
X11710700D01*
G01X11761100Y1126600D02*
X11801700D01*
G01X11823000Y1156300D02*
X11828400Y1151000D01*
X11834500Y1147800D01*
X11839900D01*
X11845300Y1151000D01*
X11849400Y1156300D01*
X11851400Y1163700D01*
X11850100Y1171100D01*
X11846700Y1177400D01*
X11840600Y1181700D01*
X11832500Y1183800D01*
X11827700Y1188000D01*
X11825700Y1195400D01*
X11827100Y1202800D01*
X11830400Y1208100D01*
X11835200Y1211300D01*
X11839900D01*
X11844600Y1209200D01*
X11848700Y1203900D01*
G01X11884900Y1211300D02*
X11901100D01*
G01X11893000D02*
Y1147800D01*
G01X11884900D02*
X11901100D01*
G01X11935900Y1211300D02*
X11961700D01*
X11935900Y1147800D01*
X11961700D01*
G01X12018100D02*
X11991100D01*
Y1211300D01*
X12018100D01*
G01X12007300Y1180600D02*
X11991100D01*
G01X11216100Y1924800D02*
Y1988300D01*
X11229600D01*
X11235100Y1985100D01*
X11239100Y1980900D01*
X11242500Y1974500D01*
X11245200Y1967100D01*
X11245900Y1956500D01*
X11245200Y1946000D01*
X11242500Y1938600D01*
X11239100Y1932200D01*
X11235100Y1928000D01*
X11229600Y1924800D01*
X11216100D01*
G01X11273300D02*
Y1988300D01*
X11290200D01*
X11295600Y1985100D01*
X11299000Y1980900D01*
X11300300Y1972400D01*
X11299000Y1964000D01*
X11294900Y1958700D01*
X11290200Y1955500D01*
X11273300D01*
G01X11290200D02*
X11300300Y1924800D01*
G01X11334500Y1988300D02*
X11350700D01*
G01X11342600D02*
Y1924800D01*
G01X11334500D02*
X11350700D01*
G01X11384900Y1988300D02*
Y1924800D01*
X11411900D01*
G01X11440700Y1988300D02*
Y1924800D01*
X11467700D01*
G01X11580700Y1983000D02*
X11576600Y1986200D01*
X11571900Y1988300D01*
X11566500D01*
X11560400Y1985100D01*
X11555700Y1979800D01*
X11552300Y1973500D01*
X11549600Y1962900D01*
X11548900Y1953400D01*
X11550200Y1943800D01*
X11552300Y1937500D01*
X11556300Y1931100D01*
X11561100Y1926900D01*
X11565800Y1924800D01*
X11570500D01*
X11575300Y1926900D01*
X11579300Y1930100D01*
X11582700Y1934300D01*
G01X11607400Y1924800D02*
Y1988300D01*
G01X11635800D02*
Y1924800D01*
G01Y1956500D02*
X11607400D01*
G01X11660500Y1924800D02*
X11677400Y1988300D01*
X11694300Y1924800D01*
G01X11688200Y1947000D02*
X11666600D01*
G01X11719700Y1924800D02*
Y1988300D01*
X11736600D01*
X11742000Y1985100D01*
X11745400Y1980900D01*
X11746700Y1972400D01*
X11745400Y1964000D01*
X11741300Y1958700D01*
X11736600Y1955500D01*
X11719700D01*
G01X11736600D02*
X11746700Y1924800D01*
G01X11789000Y1988300D02*
Y1924800D01*
G01X11773400Y1988300D02*
X11804600D01*
G01X11844800Y1922700D02*
X11843400Y1923700D01*
Y1925900D01*
X11844800Y1926900D01*
X11846200Y1925900D01*
Y1923700D01*
X11844800Y1922700D01*
G01Y1951300D02*
X11843400Y1952300D01*
Y1954400D01*
X11844800Y1955500D01*
X11846200Y1954400D01*
Y1952300D01*
X11844800Y1951300D01*
G01X11956400Y1988300D02*
Y1924800D01*
G01X11940800Y1988300D02*
X11972000D01*
G01X12012200Y1924800D02*
X12006800Y1925900D01*
X12002100Y1930100D01*
X11998000Y1936400D01*
X11995300Y1943800D01*
X11993900Y1952300D01*
Y1960800D01*
X11995300Y1969300D01*
X11998000Y1976700D01*
X12002100Y1983000D01*
X12006800Y1987200D01*
X12012200Y1988300D01*
X12017600Y1987200D01*
X12022300Y1983000D01*
X12026400Y1976700D01*
X12029100Y1969300D01*
X12030500Y1960800D01*
Y1952300D01*
X12029100Y1943800D01*
X12026400Y1936400D01*
X12022300Y1930100D01*
X12017600Y1925900D01*
X12012200Y1924800D01*
G01X12054500D02*
Y1988300D01*
X12070700D01*
X12076100Y1985100D01*
X12080200Y1977700D01*
X12081500Y1969300D01*
X12080200Y1960800D01*
X12076800Y1954400D01*
X12070700Y1951300D01*
X12054500D01*
G01X12179600Y1988300D02*
Y1924800D01*
G01X12170100Y1967100D02*
X12189100D01*
G01X12235400Y1924800D02*
X12231300Y1925900D01*
X12227300Y1930100D01*
X12224600Y1937500D01*
X12223200Y1946000D01*
X12224600Y1954400D01*
X12227300Y1961800D01*
X12231300Y1966100D01*
X12235400Y1967100D01*
X12239500Y1966100D01*
X12243500Y1961800D01*
X12246200Y1954400D01*
X12246900Y1946000D01*
X12246200Y1937500D01*
X12243500Y1930100D01*
X12239500Y1925900D01*
X12235400Y1924800D01*
G01X12352400Y1958700D02*
X12355100Y1961800D01*
X12357100Y1967100D01*
X12358500Y1974500D01*
X12357100Y1980900D01*
X12354400Y1985100D01*
X12349700Y1988300D01*
X12331400D01*
Y1924800D01*
X12353800D01*
X12358500Y1929000D01*
X12361200Y1935400D01*
X12362600Y1942800D01*
X12361200Y1950200D01*
X12357100Y1956500D01*
X12352400Y1958700D01*
X12331400D01*
G01X12402800Y1924800D02*
X12397400Y1925900D01*
X12392700Y1930100D01*
X12388600Y1936400D01*
X12385900Y1943800D01*
X12384500Y1952300D01*
Y1960800D01*
X12385900Y1969300D01*
X12388600Y1976700D01*
X12392700Y1983000D01*
X12397400Y1987200D01*
X12402800Y1988300D01*
X12408200Y1987200D01*
X12412900Y1983000D01*
X12417000Y1976700D01*
X12419700Y1969300D01*
X12421100Y1960800D01*
Y1952300D01*
X12419700Y1943800D01*
X12417000Y1936400D01*
X12412900Y1930100D01*
X12408200Y1925900D01*
X12402800Y1924800D01*
G01X12458600Y1988300D02*
Y1924800D01*
G01X12443000Y1988300D02*
X12474200D01*
G01X12514400D02*
Y1924800D01*
G01X12498800Y1988300D02*
X12530000D01*
G01X12570200Y1924800D02*
X12564800Y1925900D01*
X12560100Y1930100D01*
X12556000Y1936400D01*
X12553300Y1943800D01*
X12551900Y1952300D01*
Y1960800D01*
X12553300Y1969300D01*
X12556000Y1976700D01*
X12560100Y1983000D01*
X12564800Y1987200D01*
X12570200Y1988300D01*
X12575600Y1987200D01*
X12580300Y1983000D01*
X12584400Y1976700D01*
X12587100Y1969300D01*
X12588500Y1960800D01*
Y1952300D01*
X12587100Y1943800D01*
X12584400Y1936400D01*
X12580300Y1930100D01*
X12575600Y1925900D01*
X12570200Y1924800D01*
G01X12608400D02*
Y1988300D01*
X12626000Y1935400D01*
X12643600Y1988300D01*
Y1924800D01*
G01X12143700Y84100D02*
Y147600D01*
X12174900Y84100D01*
Y147600D01*
G01X12215100Y84100D02*
X12209700Y85200D01*
X12205000Y89400D01*
X12200900Y95700D01*
X12198200Y103100D01*
X12196800Y111600D01*
Y120100D01*
X12198200Y128600D01*
X12200900Y136000D01*
X12205000Y142300D01*
X12209700Y146500D01*
X12215100Y147600D01*
X12220500Y146500D01*
X12225200Y142300D01*
X12229300Y136000D01*
X12232000Y128600D01*
X12233400Y120100D01*
Y111600D01*
X12232000Y103100D01*
X12229300Y95700D01*
X12225200Y89400D01*
X12220500Y85200D01*
X12215100Y84100D01*
G01X12255300D02*
Y147600D01*
X12286500Y84100D01*
Y147600D01*
G01X12317900Y105300D02*
X12335500D01*
G01X12369000Y84100D02*
Y147600D01*
X12385200D01*
X12390600Y144400D01*
X12394700Y137000D01*
X12396000Y128600D01*
X12394700Y120100D01*
X12391300Y113700D01*
X12385200Y110600D01*
X12369000D01*
G01X12424800Y147600D02*
Y84100D01*
X12451800D01*
G01X12477200D02*
X12494100Y147600D01*
X12511000Y84100D01*
G01X12504900Y106300D02*
X12483300D01*
G01X12549900Y147600D02*
Y84100D01*
G01X12534300Y147600D02*
X12565500D01*
G01X12619200Y84100D02*
X12592200D01*
Y147600D01*
X12619200D01*
G01X12608400Y116900D02*
X12592200D01*
G01X12646600Y84100D02*
Y147600D01*
X12660100D01*
X12665600Y144400D01*
X12669600Y140200D01*
X12673000Y133800D01*
X12675700Y126400D01*
X12676400Y115800D01*
X12675700Y105300D01*
X12673000Y97900D01*
X12669600Y91500D01*
X12665600Y87300D01*
X12660100Y84100D01*
X12646600D01*
G01X12123800Y1243000D02*
Y-27000D01*
G01X12257400Y941400D02*
Y1004900D01*
X12273600D01*
X12279000Y1001700D01*
X12283100Y994300D01*
X12284400Y985900D01*
X12283100Y977400D01*
X12279700Y971000D01*
X12273600Y967900D01*
X12257400D01*
G01X12313200Y1004900D02*
Y941400D01*
X12340200D01*
G01X12365600D02*
X12382500Y1004900D01*
X12399400Y941400D01*
G01X12393300Y963600D02*
X12371700D01*
G01X12438300Y1004900D02*
Y941400D01*
G01X12422700Y1004900D02*
X12453900D01*
G01X12507600Y941400D02*
X12480600D01*
Y1004900D01*
X12507600D01*
G01X12496800Y974200D02*
X12480600D01*
G01X12535000Y941400D02*
Y1004900D01*
X12548500D01*
X12554000Y1001700D01*
X12558000Y997500D01*
X12561400Y991100D01*
X12564100Y983700D01*
X12564800Y973100D01*
X12564100Y962600D01*
X12561400Y955200D01*
X12558000Y948800D01*
X12554000Y944600D01*
X12548500Y941400D01*
X12535000D01*
G01X12257400Y655600D02*
Y719100D01*
X12273600D01*
X12279000Y715900D01*
X12283100Y708500D01*
X12284400Y700100D01*
X12283100Y691600D01*
X12279700Y685200D01*
X12273600Y682100D01*
X12257400D01*
G01X12313200Y719100D02*
Y655600D01*
X12340200D01*
G01X12365600D02*
X12382500Y719100D01*
X12399400Y655600D01*
G01X12393300Y677800D02*
X12371700D01*
G01X12438300Y719100D02*
Y655600D01*
G01X12422700Y719100D02*
X12453900D01*
G01X12507600Y655600D02*
X12480600D01*
Y719100D01*
X12507600D01*
G01X12496800Y688400D02*
X12480600D01*
G01X12535000Y655600D02*
Y719100D01*
X12548500D01*
X12554000Y715900D01*
X12558000Y711700D01*
X12561400Y705300D01*
X12564100Y697900D01*
X12564800Y687300D01*
X12564100Y676800D01*
X12561400Y669400D01*
X12558000Y663000D01*
X12554000Y658800D01*
X12548500Y655600D01*
X12535000D01*
G01X12257400Y369900D02*
Y433400D01*
X12273600D01*
X12279000Y430200D01*
X12283100Y422800D01*
X12284400Y414400D01*
X12283100Y405900D01*
X12279700Y399500D01*
X12273600Y396400D01*
X12257400D01*
G01X12313200Y433400D02*
Y369900D01*
X12340200D01*
G01X12365600D02*
X12382500Y433400D01*
X12399400Y369900D01*
G01X12393300Y392100D02*
X12371700D01*
G01X12438300Y433400D02*
Y369900D01*
G01X12422700Y433400D02*
X12453900D01*
G01X12507600Y369900D02*
X12480600D01*
Y433400D01*
X12507600D01*
G01X12496800Y402700D02*
X12480600D01*
G01X12535000Y369900D02*
Y433400D01*
X12548500D01*
X12554000Y430200D01*
X12558000Y426000D01*
X12561400Y419600D01*
X12564100Y412200D01*
X12564800Y401600D01*
X12564100Y391100D01*
X12561400Y383700D01*
X12558000Y377300D01*
X12554000Y373100D01*
X12548500Y369900D01*
X12535000D01*
G01X12257400Y1147800D02*
Y1211300D01*
X12273600D01*
X12279000Y1208100D01*
X12283100Y1200700D01*
X12284400Y1192300D01*
X12283100Y1183800D01*
X12279700Y1177400D01*
X12273600Y1174300D01*
X12257400D01*
G01X12313200Y1211300D02*
Y1147800D01*
X12340200D01*
G01X12365600D02*
X12382500Y1211300D01*
X12399400Y1147800D01*
G01X12393300Y1170000D02*
X12371700D01*
G01X12438300Y1211300D02*
Y1147800D01*
G01X12422700Y1211300D02*
X12453900D01*
G01X12507600Y1147800D02*
X12480600D01*
Y1211300D01*
X12507600D01*
G01X12496800Y1180600D02*
X12480600D01*
G01X12535000Y1147800D02*
Y1211300D01*
X12548500D01*
X12554000Y1208100D01*
X12558000Y1203900D01*
X12561400Y1197500D01*
X12564100Y1190100D01*
X12564800Y1179500D01*
X12564100Y1169000D01*
X12561400Y1161600D01*
X12558000Y1155200D01*
X12554000Y1151000D01*
X12548500Y1147800D01*
X12535000D01*
G01X12880100Y84100D02*
Y147600D01*
X12855100Y102100D01*
X12888900D01*
G01X12697000Y1243000D02*
Y-27000D01*
G01X12829200Y950900D02*
X12833300Y945600D01*
X12838000Y942500D01*
X12844100Y941400D01*
X12850200Y943500D01*
X12854900Y947700D01*
X12858300Y955200D01*
X12859000Y963600D01*
X12857600Y972100D01*
X12854200Y977400D01*
X12849500Y981600D01*
X12844800Y982700D01*
X12840000Y981600D01*
X12834000Y977400D01*
X12836000Y1004900D01*
X12854200D01*
G01X12887000Y994300D02*
X12891100Y1000700D01*
X12895800Y1003800D01*
X12901300Y1004900D01*
X12908000Y1002800D01*
X12912800Y997500D01*
X12914100Y991100D01*
X12913400Y984800D01*
X12910700Y979500D01*
X12897200Y968900D01*
X12891100Y961500D01*
X12887000Y950900D01*
X12885700Y941400D01*
X12914100D01*
G01X12831200Y708500D02*
X12835300Y714900D01*
X12840000Y718000D01*
X12845500Y719100D01*
X12852200Y717000D01*
X12857000Y711700D01*
X12858300Y705300D01*
X12857600Y699000D01*
X12854900Y693700D01*
X12841400Y683100D01*
X12835300Y675700D01*
X12831200Y665100D01*
X12829900Y655600D01*
X12858300D01*
G01X12899900Y719100D02*
X12894500Y717000D01*
X12890400Y711700D01*
X12887700Y705300D01*
X12885700Y696900D01*
X12885000Y687300D01*
X12885700Y677800D01*
X12887700Y669400D01*
X12890400Y663000D01*
X12894500Y657700D01*
X12899900Y655600D01*
X12905300Y657700D01*
X12909400Y663000D01*
X12912100Y669400D01*
X12914100Y677800D01*
X12914800Y687300D01*
X12914100Y696900D01*
X12912100Y705300D01*
X12909400Y711700D01*
X12905300Y717000D01*
X12899900Y719100D01*
G01X12859100Y396400D02*
X12863900Y403800D01*
X12867900Y408000D01*
X12873400Y410100D01*
X12878100Y408000D01*
X12881500Y403800D01*
X12884200Y397400D01*
X12884900Y390000D01*
X12884200Y383700D01*
X12881500Y377300D01*
X12877400Y372000D01*
X12872700Y369900D01*
X12867300Y372000D01*
X12862500Y378400D01*
X12859800Y387900D01*
X12859100Y398500D01*
X12860500Y412200D01*
X12862500Y419600D01*
X12865900Y427000D01*
X12870600Y432300D01*
X12875400Y433400D01*
X12880100Y431300D01*
X12883500Y426000D01*
G01X12816200Y1147800D02*
X12810800Y1148900D01*
X12806100Y1153100D01*
X12802000Y1159400D01*
X12799300Y1166800D01*
X12797900Y1175300D01*
Y1183800D01*
X12799300Y1192300D01*
X12802000Y1199700D01*
X12806100Y1206000D01*
X12810800Y1210200D01*
X12816200Y1211300D01*
X12821600Y1210200D01*
X12826300Y1206000D01*
X12830400Y1199700D01*
X12833100Y1192300D01*
X12834500Y1183800D01*
Y1175300D01*
X12833100Y1166800D01*
X12830400Y1159400D01*
X12826300Y1153100D01*
X12821600Y1148900D01*
X12816200Y1147800D01*
G01X12821600Y1164700D02*
X12829700Y1147800D01*
G01X12872000Y1211300D02*
Y1147800D01*
G01X12856400Y1211300D02*
X12887600D01*
G01X12927800Y1147800D02*
Y1176400D01*
X12914300Y1211300D01*
G01X12941300D02*
X12927800Y1176400D01*
M02*
