G04 ================== begin FILE IDENTIFICATION RECORD ==================*
G04 Layout Name:  C:/Users/user/Desktop/OSCILLATOR/OSCILLATOR.brd*
G04 Film Name:    SilkT*
G04 File Format:  Gerber RS274X*
G04 File Origin:  Cadence Allegro 17.2-P019*
G04 Origin Date:  Thu Aug 01 11:31:36 2019*
G04 *
G04 Layer:  REF DES/SILKSCREEN_TOP*
G04 Layer:  PACKAGE GEOMETRY/SILKSCREEN_TOP*
G04 Layer:  BOARD GEOMETRY/SILKSCREEN_TOP*
G04 *
G04 Offset:    (0.000 0.000)*
G04 Mirror:    No*
G04 Mode:      Positive*
G04 Rotation:  0*
G04 FullContactRelief:  No*
G04 UndefLineWidth:     0.200*
G04 ================== end FILE IDENTIFICATION RECORD ====================*
%FSLAX25Y25*MOMM*%
%IR0*IPPOS*OFA0.00000B0.00000*MIA0B0*SFA1.00000B1.00000*%
%ADD10C,.203*%
%ADD11C,.2*%
G75*
%LPD*%
G75*
G54D10*
G01X1370600Y2542100D02*
Y1970600D01*
G01D02*
X2437400D01*
G01Y2542100D02*
X1370600D01*
G01Y2402400D02*
X2437400D01*
G01Y1970600D02*
Y2542100D01*
G01X2660600Y2522100D02*
Y1950600D01*
G01D02*
X3727400D01*
G01Y2522100D02*
X2660600D01*
G01Y2382400D02*
X3727400D01*
G01Y1950600D02*
Y2522100D01*
G54D11*
G01X373000Y4127000D02*
X627000D01*
Y3365000D01*
X373000D01*
Y4127000D01*
G01X371100Y4205700D02*
X376000Y4197900D01*
X381800Y4192600D01*
X388700Y4190000D01*
X396400Y4192600D01*
X402300Y4197900D01*
X408100Y4205700D01*
X410100Y4216200D01*
Y4268700D01*
G01X450800Y4255600D02*
X456600Y4263500D01*
X463500Y4267400D01*
X471200Y4268700D01*
X481000Y4266100D01*
X487800Y4259500D01*
X489700Y4251600D01*
X488800Y4243800D01*
X484900Y4237200D01*
X465400Y4224100D01*
X456600Y4214900D01*
X450800Y4201800D01*
X448900Y4190000D01*
X489700D01*
G01X1016000Y5778500D02*
G03I-254000J0D01*
G01X750600Y6246400D02*
X741000Y6252800D01*
X729700Y6257000D01*
X716900D01*
X702400Y6250600D01*
X691100Y6240100D01*
X683100Y6227400D01*
X676600Y6206200D01*
X675000Y6187100D01*
X678300Y6168100D01*
X683100Y6155400D01*
X692700Y6142700D01*
X704000Y6134200D01*
X715200Y6130000D01*
X726500D01*
X737800Y6134200D01*
X747400Y6140600D01*
X755500Y6149000D01*
G01X809400D02*
X819000Y6138500D01*
X830300Y6132100D01*
X844700Y6130000D01*
X859200Y6134200D01*
X870500Y6142700D01*
X878500Y6157500D01*
X880100Y6174400D01*
X876900Y6191400D01*
X868900Y6202000D01*
X857600Y6210400D01*
X846400Y6212500D01*
X835100Y6210400D01*
X820600Y6202000D01*
X825400Y6257000D01*
X868900D01*
G01X1379400Y1935000D02*
Y1798500D01*
X1388800Y1769900D01*
X1407800Y1750800D01*
X1431500Y1744500D01*
X1455200Y1750800D01*
X1474200Y1769900D01*
X1483600Y1798500D01*
Y1935000D01*
G01X1577000Y1823900D02*
X1593600Y1846100D01*
X1607800Y1858800D01*
X1626700Y1865100D01*
X1643300Y1858800D01*
X1655200Y1846100D01*
X1664700Y1827000D01*
X1667000Y1804800D01*
X1664700Y1785800D01*
X1655200Y1766700D01*
X1641000Y1750800D01*
X1624400Y1744500D01*
X1605400Y1750800D01*
X1588800Y1769900D01*
X1579300Y1798500D01*
X1577000Y1830200D01*
X1581700Y1871500D01*
X1588800Y1893700D01*
X1600700Y1915900D01*
X1617300Y1931800D01*
X1633800Y1935000D01*
X1650400Y1928700D01*
X1662300Y1912800D01*
G01X2514600Y3111500D02*
X1803400D01*
Y3365500D01*
X2514600D01*
Y3111500D01*
G01X1831100Y3430000D02*
Y3508700D01*
X1855500D01*
X1863300Y3504800D01*
X1868100Y3499500D01*
X1870100Y3489000D01*
X1868100Y3478500D01*
X1862300Y3472000D01*
X1855500Y3468000D01*
X1831100D01*
G01X1855500D02*
X1870100Y3430000D01*
G01X1929300D02*
Y3508700D01*
X1917600Y3493000D01*
G01Y3430000D02*
X1941000D01*
G01X1651000Y3873500D02*
G03I-254000J0D01*
G01X1380600Y4316400D02*
X1371000Y4322800D01*
X1359700Y4327000D01*
X1346900D01*
X1332400Y4320600D01*
X1321100Y4310100D01*
X1313100Y4297400D01*
X1306600Y4276200D01*
X1305000Y4257100D01*
X1308300Y4238100D01*
X1313100Y4225400D01*
X1322700Y4212700D01*
X1334000Y4204200D01*
X1345200Y4200000D01*
X1356500D01*
X1367800Y4204200D01*
X1377400Y4210600D01*
X1385500Y4219000D01*
G01X1439400Y4225400D02*
X1449000Y4210600D01*
X1461900Y4202100D01*
X1476400Y4200000D01*
X1489200Y4202100D01*
X1502100Y4212700D01*
X1510100Y4225400D01*
X1511700Y4238100D01*
X1508500Y4252900D01*
X1497300Y4263500D01*
X1486000Y4267700D01*
X1471500D01*
G01X1486000D02*
X1495700Y4274100D01*
X1503700Y4284700D01*
X1506900Y4297400D01*
X1503700Y4310100D01*
X1495700Y4320600D01*
X1481200Y4327000D01*
X1466700Y4324900D01*
X1452200Y4316400D01*
G01X2070100Y5651500D02*
X1358900D01*
Y5905500D01*
X2070100D01*
Y5651500D01*
G01X1371100Y5960000D02*
Y6038700D01*
X1395500D01*
X1403300Y6034800D01*
X1408100Y6029500D01*
X1410100Y6019000D01*
X1408100Y6008500D01*
X1402300Y6002000D01*
X1395500Y5998000D01*
X1371100D01*
G01X1395500D02*
X1410100Y5960000D01*
G01X1469300D02*
X1476100Y5961300D01*
X1483900Y5965200D01*
X1488800Y5971800D01*
X1490700Y5981000D01*
X1488800Y5990200D01*
X1482900Y5998000D01*
X1474200Y6002000D01*
X1464400D01*
X1458600Y6004600D01*
X1453700Y6011200D01*
X1451800Y6020300D01*
X1454700Y6029500D01*
X1461500Y6036100D01*
X1469300Y6038700D01*
X1477100Y6036100D01*
X1483900Y6029500D01*
X1486800Y6020300D01*
X1484900Y6011200D01*
X1480000Y6004600D01*
X1474200Y6002000D01*
X1464400D01*
X1455700Y5998000D01*
X1449800Y5990200D01*
X1447900Y5981000D01*
X1449800Y5971800D01*
X1454700Y5965200D01*
X1462500Y5961300D01*
X1469300Y5960000D01*
G01X2549900Y4727000D02*
Y4636000D01*
X2556300Y4616900D01*
X2569200Y4604200D01*
X2585200Y4600000D01*
X2601300Y4604200D01*
X2614200Y4616900D01*
X2620600Y4636000D01*
Y4727000D01*
G01X2714700Y4600000D02*
Y4727000D01*
X2695400Y4701600D01*
G01Y4600000D02*
X2734000D01*
G01X1911600Y5357000D02*
X2064000D01*
X2127500Y5293500D01*
X2254500D01*
X2318000Y5357000D01*
X2470400D01*
Y4341000D01*
X1911600D01*
Y5357000D01*
G01X2159000Y6540500D02*
X2794000D01*
Y6032500D01*
X2159000D01*
Y6540500D01*
G01X2178300Y6590000D02*
Y6717000D01*
X2218500D01*
X2231400Y6710600D01*
X2239400Y6702200D01*
X2242600Y6685200D01*
X2239400Y6668300D01*
X2229800Y6657700D01*
X2218500Y6651400D01*
X2178300D01*
G01X2218500D02*
X2242600Y6590000D01*
G01X2339900D02*
Y6717000D01*
X2320600Y6691600D01*
G01Y6590000D02*
X2359200D01*
G01X2469400D02*
Y6717000D01*
X2450100Y6691600D01*
G01Y6590000D02*
X2488700D01*
G01X2669400Y1915000D02*
Y1778500D01*
X2678800Y1749900D01*
X2697800Y1730800D01*
X2721500Y1724500D01*
X2745200Y1730800D01*
X2764200Y1749900D01*
X2773600Y1778500D01*
Y1915000D01*
G01X2859900Y1753100D02*
X2874100Y1737200D01*
X2890700Y1727700D01*
X2912000Y1724500D01*
X2933300Y1730800D01*
X2949900Y1743500D01*
X2961800Y1765800D01*
X2964100Y1791200D01*
X2959400Y1816600D01*
X2947500Y1832500D01*
X2931000Y1845100D01*
X2914400Y1848300D01*
X2897800Y1845100D01*
X2876500Y1832500D01*
X2883600Y1915000D01*
X2947500D01*
G01X3646700Y320000D02*
X3513300D01*
Y820000D01*
X3646700D01*
G01X3593300Y578300D02*
X3513300D01*
G01X3728500Y820000D02*
Y320000D01*
X3861900D01*
G01X4077100D02*
X3943700D01*
Y820000D01*
X4077100D01*
G01X4023700Y578300D02*
X3943700D01*
G01X4298900Y778300D02*
X4278900Y803300D01*
X4255600Y820000D01*
X4228900D01*
X4198900Y795000D01*
X4175600Y753300D01*
X4158900Y703300D01*
X4145600Y620000D01*
X4142300Y545000D01*
X4148900Y470000D01*
X4158900Y420000D01*
X4178900Y370000D01*
X4202300Y336700D01*
X4225600Y320000D01*
X4248900D01*
X4272300Y336700D01*
X4292300Y361700D01*
X4308900Y395000D01*
G01X4440800Y820000D02*
Y320000D01*
G01X4364100Y820000D02*
X4517500D01*
G01X4589300Y320000D02*
Y820000D01*
X4672700D01*
X4699300Y795000D01*
X4716000Y761700D01*
X4722700Y695000D01*
X4716000Y628300D01*
X4696000Y586700D01*
X4672700Y561700D01*
X4589300D01*
G01X4672700D02*
X4722700Y320000D01*
G01X4871200D02*
X4844500Y328300D01*
X4821200Y361700D01*
X4801200Y411700D01*
X4787900Y470000D01*
X4781200Y536700D01*
Y603300D01*
X4787900Y670000D01*
X4801200Y728300D01*
X4821200Y778300D01*
X4844500Y811700D01*
X4871200Y820000D01*
X4897900Y811700D01*
X4921200Y778300D01*
X4941200Y728300D01*
X4954500Y670000D01*
X4961200Y603300D01*
Y536700D01*
X4954500Y470000D01*
X4941200Y411700D01*
X4921200Y361700D01*
X4897900Y328300D01*
X4871200Y320000D01*
G01X5009700D02*
Y820000D01*
X5163100Y320000D01*
Y820000D01*
G01X5261600D02*
X5341600D01*
G01X5301600D02*
Y320000D01*
G01X5261600D02*
X5341600D01*
G01X5590100Y778300D02*
X5570100Y803300D01*
X5546800Y820000D01*
X5520100D01*
X5490100Y795000D01*
X5466800Y753300D01*
X5450100Y703300D01*
X5436800Y620000D01*
X5433500Y545000D01*
X5440100Y470000D01*
X5450100Y420000D01*
X5470100Y370000D01*
X5493500Y336700D01*
X5516800Y320000D01*
X5540100D01*
X5563500Y336700D01*
X5583500Y361700D01*
X5600100Y395000D01*
G01X5880500Y320000D02*
Y820000D01*
X5960500D01*
X5987200Y795000D01*
X6007200Y736700D01*
X6013900Y670000D01*
X6007200Y603300D01*
X5990500Y553300D01*
X5960500Y528300D01*
X5880500D01*
G01X6235700Y778300D02*
X6215700Y803300D01*
X6192400Y820000D01*
X6165700D01*
X6135700Y795000D01*
X6112400Y753300D01*
X6095700Y703300D01*
X6082400Y620000D01*
X6079100Y545000D01*
X6085700Y470000D01*
X6095700Y420000D01*
X6115700Y370000D01*
X6139100Y336700D01*
X6162400Y320000D01*
X6185700D01*
X6209100Y336700D01*
X6229100Y361700D01*
X6245700Y395000D01*
G01X6404300Y586700D02*
X6417600Y611700D01*
X6427600Y653300D01*
X6434300Y711700D01*
X6427600Y761700D01*
X6414300Y795000D01*
X6390900Y820000D01*
X6300900D01*
Y320000D01*
X6410900D01*
X6434300Y353300D01*
X6447600Y403300D01*
X6454300Y461700D01*
X6447600Y520000D01*
X6427600Y570000D01*
X6404300Y586700D01*
X6300900D01*
G01X3810000Y2374900D02*
Y3086100D01*
X4064000D01*
Y2374900D01*
X3810000D01*
G01X4086400Y2844800D02*
Y2923500D01*
X4110800D01*
X4118600Y2919600D01*
X4123400Y2914300D01*
X4125400Y2903800D01*
X4123400Y2893300D01*
X4117600Y2886800D01*
X4110800Y2882800D01*
X4086400D01*
G01X4110800D02*
X4125400Y2844800D01*
G01X4163200Y2856600D02*
X4169000Y2850000D01*
X4175800Y2846100D01*
X4184600Y2844800D01*
X4193400Y2847400D01*
X4200200Y2852700D01*
X4205000Y2861900D01*
X4206000Y2872300D01*
X4204100Y2882800D01*
X4199200Y2889400D01*
X4192400Y2894600D01*
X4185600Y2896000D01*
X4178800Y2894600D01*
X4170000Y2889400D01*
X4172900Y2923500D01*
X4199200D01*
G01X3891600Y5317000D02*
X4044000D01*
X4107500Y5253500D01*
X4234500D01*
X4298000Y5317000D01*
X4450400D01*
Y4301000D01*
X3891600D01*
Y5317000D01*
G01X3835400Y5715000D02*
X4546600D01*
Y5461000D01*
X3835400D01*
Y5715000D01*
G01X4050000Y6260000D02*
X4023300Y6268300D01*
X4000000Y6301700D01*
X3980000Y6351700D01*
X3966700Y6410000D01*
X3960000Y6476700D01*
Y6543300D01*
X3966700Y6610000D01*
X3980000Y6668300D01*
X4000000Y6718300D01*
X4023300Y6751700D01*
X4050000Y6760000D01*
X4076700Y6751700D01*
X4100000Y6718300D01*
X4120000Y6668300D01*
X4133300Y6610000D01*
X4140000Y6543300D01*
Y6476700D01*
X4133300Y6410000D01*
X4120000Y6351700D01*
X4100000Y6301700D01*
X4076700Y6268300D01*
X4050000Y6260000D01*
G01X4195200Y6326700D02*
X4221900Y6285000D01*
X4251900Y6260000D01*
X4278500D01*
X4305200Y6285000D01*
X4325200Y6326700D01*
X4335200Y6385000D01*
X4328500Y6443300D01*
X4311900Y6493300D01*
X4281900Y6526700D01*
X4241900Y6543300D01*
X4218500Y6576700D01*
X4208500Y6635000D01*
X4215200Y6693300D01*
X4231900Y6735000D01*
X4255200Y6760000D01*
X4278500D01*
X4301900Y6743300D01*
X4321900Y6701700D01*
G01X4553700Y6718300D02*
X4533700Y6743300D01*
X4510400Y6760000D01*
X4483700D01*
X4453700Y6735000D01*
X4430400Y6693300D01*
X4413700Y6643300D01*
X4400400Y6560000D01*
X4397100Y6485000D01*
X4403700Y6410000D01*
X4413700Y6360000D01*
X4433700Y6310000D01*
X4457100Y6276700D01*
X4480400Y6260000D01*
X4503700D01*
X4527100Y6276700D01*
X4547100Y6301700D01*
X4563700Y6335000D01*
G01X4655600Y6760000D02*
X4735600D01*
G01X4695600D02*
Y6260000D01*
G01X4655600D02*
X4735600D01*
G01X4844100Y6760000D02*
Y6260000D01*
X4977500D01*
G01X5059300Y6760000D02*
Y6260000D01*
X5192700D01*
G01X5257900D02*
X5341200Y6760000D01*
X5424500Y6260000D01*
G01X5394500Y6435000D02*
X5287900D01*
G01X5556400Y6760000D02*
Y6260000D01*
G01X5479700Y6760000D02*
X5633100D01*
G01X5771600Y6260000D02*
X5744900Y6268300D01*
X5721600Y6301700D01*
X5701600Y6351700D01*
X5688300Y6410000D01*
X5681600Y6476700D01*
Y6543300D01*
X5688300Y6610000D01*
X5701600Y6668300D01*
X5721600Y6718300D01*
X5744900Y6751700D01*
X5771600Y6760000D01*
X5798300Y6751700D01*
X5821600Y6718300D01*
X5841600Y6668300D01*
X5854900Y6610000D01*
X5861600Y6543300D01*
Y6476700D01*
X5854900Y6410000D01*
X5841600Y6351700D01*
X5821600Y6301700D01*
X5798300Y6268300D01*
X5771600Y6260000D01*
G01X5920100D02*
Y6760000D01*
X6003500D01*
X6030100Y6735000D01*
X6046800Y6701700D01*
X6053500Y6635000D01*
X6046800Y6568300D01*
X6026800Y6526700D01*
X6003500Y6501700D01*
X5920100D01*
G01X6003500D02*
X6053500Y6260000D01*
G01X3861100Y5780000D02*
Y5858700D01*
X3885500D01*
X3893300Y5854800D01*
X3898100Y5849500D01*
X3900100Y5839000D01*
X3898100Y5828500D01*
X3892300Y5822000D01*
X3885500Y5818000D01*
X3861100D01*
G01X3885500D02*
X3900100Y5780000D01*
G01X3940800Y5812800D02*
X3947600Y5822000D01*
X3953500Y5827200D01*
X3961200Y5829800D01*
X3968100Y5827200D01*
X3972900Y5822000D01*
X3976800Y5814100D01*
X3977800Y5804900D01*
X3976800Y5797100D01*
X3972900Y5789200D01*
X3967100Y5782600D01*
X3960300Y5780000D01*
X3952500Y5782600D01*
X3945700Y5790500D01*
X3941800Y5802300D01*
X3940800Y5815400D01*
X3942800Y5832500D01*
X3945700Y5841600D01*
X3950500Y5850800D01*
X3957400Y5857400D01*
X3964200Y5858700D01*
X3971000Y5856100D01*
X3975800Y5849500D01*
G01X4530600Y3456400D02*
X4521000Y3462800D01*
X4509700Y3467000D01*
X4496900D01*
X4482400Y3460600D01*
X4471100Y3450100D01*
X4463100Y3437400D01*
X4456600Y3416200D01*
X4455000Y3397100D01*
X4458300Y3378100D01*
X4463100Y3365400D01*
X4472700Y3352700D01*
X4484000Y3344200D01*
X4495200Y3340000D01*
X4506500D01*
X4517800Y3344200D01*
X4527400Y3350600D01*
X4535500Y3359000D01*
G01X4594200Y3445800D02*
X4603800Y3458500D01*
X4615100Y3464900D01*
X4628000Y3467000D01*
X4644100Y3462800D01*
X4655300Y3452200D01*
X4658500Y3439500D01*
X4656900Y3426800D01*
X4650500Y3416200D01*
X4618300Y3395000D01*
X4603800Y3380200D01*
X4594200Y3359000D01*
X4591000Y3340000D01*
X4658500D01*
G01X4826000Y3048000D02*
G03I-254000J0D01*
G01X4549900Y5027000D02*
Y4936000D01*
X4556300Y4916900D01*
X4569200Y4904200D01*
X4585200Y4900000D01*
X4601300Y4904200D01*
X4614200Y4916900D01*
X4620600Y4936000D01*
Y5027000D01*
G01X4684200Y5005800D02*
X4693800Y5018500D01*
X4705100Y5024900D01*
X4718000Y5027000D01*
X4734100Y5022800D01*
X4745300Y5012200D01*
X4748500Y4999500D01*
X4746900Y4986800D01*
X4740500Y4976200D01*
X4708300Y4955000D01*
X4693800Y4940200D01*
X4684200Y4919000D01*
X4681000Y4900000D01*
X4748500D01*
G01X5351100Y1820000D02*
Y1898700D01*
X5375500D01*
X5383300Y1894800D01*
X5388100Y1889500D01*
X5390100Y1879000D01*
X5388100Y1868500D01*
X5382300Y1862000D01*
X5375500Y1858000D01*
X5351100D01*
G01X5375500D02*
X5390100Y1820000D01*
G01X5430800Y1885600D02*
X5436600Y1893500D01*
X5443500Y1897400D01*
X5451200Y1898700D01*
X5461000Y1896100D01*
X5467800Y1889500D01*
X5469700Y1881600D01*
X5468800Y1873800D01*
X5464900Y1867200D01*
X5445400Y1854100D01*
X5436600Y1844900D01*
X5430800Y1831800D01*
X5428900Y1820000D01*
X5469700D01*
G01X6007100Y1524000D02*
X5295900D01*
Y1778000D01*
X6007100D01*
Y1524000D01*
G01X5230600Y2646400D02*
X5221000Y2652800D01*
X5209700Y2657000D01*
X5196900D01*
X5182400Y2650600D01*
X5171100Y2640100D01*
X5163100Y2627400D01*
X5156600Y2606200D01*
X5155000Y2587100D01*
X5158300Y2568100D01*
X5163100Y2555400D01*
X5172700Y2542700D01*
X5184000Y2534200D01*
X5195200Y2530000D01*
X5206500D01*
X5217800Y2534200D01*
X5227400Y2540600D01*
X5235500Y2549000D01*
G01X5324700Y2530000D02*
Y2657000D01*
X5305400Y2631600D01*
G01Y2530000D02*
X5344000D01*
G01X5524500Y2222500D02*
G03I-254000J0D01*
G01X6032500Y5461000D02*
G03I-254000J0D01*
G01X5750600Y5886400D02*
X5741000Y5892800D01*
X5729700Y5897000D01*
X5716900D01*
X5702400Y5890600D01*
X5691100Y5880100D01*
X5683100Y5867400D01*
X5676600Y5846200D01*
X5675000Y5827100D01*
X5678300Y5808100D01*
X5683100Y5795400D01*
X5692700Y5782700D01*
X5704000Y5774200D01*
X5715200Y5770000D01*
X5726500D01*
X5737800Y5774200D01*
X5747400Y5780600D01*
X5755500Y5789000D01*
G01X5814200Y5822900D02*
X5825400Y5837700D01*
X5835100Y5846200D01*
X5848000Y5850400D01*
X5859200Y5846200D01*
X5867300Y5837700D01*
X5873700Y5825000D01*
X5875300Y5810200D01*
X5873700Y5797500D01*
X5867300Y5784800D01*
X5857600Y5774200D01*
X5846400Y5770000D01*
X5833500Y5774200D01*
X5822200Y5786900D01*
X5815800Y5806000D01*
X5814200Y5827100D01*
X5817400Y5854700D01*
X5822200Y5869500D01*
X5830300Y5884300D01*
X5841500Y5894900D01*
X5852800Y5897000D01*
X5864100Y5892800D01*
X5872100Y5882200D01*
G01X7023100Y2095500D02*
X6311900D01*
Y2349500D01*
X7023100D01*
Y2095500D01*
G01Y2540000D02*
X6311900D01*
Y2794000D01*
X7023100D01*
Y2540000D01*
G01X6311900Y3175000D02*
X7023100D01*
Y2921000D01*
X6311900D01*
Y3175000D01*
G01X6134100Y5143500D02*
X6286500D01*
X6350000Y5080000D01*
X6477000D01*
X6540500Y5143500D01*
X6692900D01*
Y4127500D01*
X6134100D01*
Y5143500D01*
G01X7071100Y2300000D02*
Y2378700D01*
X7095500D01*
X7103300Y2374800D01*
X7108100Y2369500D01*
X7110100Y2359000D01*
X7108100Y2348500D01*
X7102300Y2342000D01*
X7095500Y2338000D01*
X7071100D01*
G01X7095500D02*
X7110100Y2300000D01*
G01X7147900Y2315700D02*
X7153700Y2306600D01*
X7161500Y2301300D01*
X7170300Y2300000D01*
X7178100Y2301300D01*
X7185800Y2307900D01*
X7190700Y2315700D01*
X7191700Y2323600D01*
X7189700Y2332800D01*
X7182900Y2339300D01*
X7176100Y2342000D01*
X7167400D01*
G01X7176100D02*
X7182000Y2345900D01*
X7186800Y2352500D01*
X7188800Y2360300D01*
X7186800Y2368200D01*
X7182000Y2374800D01*
X7173200Y2378700D01*
X7164400Y2377400D01*
X7155700Y2372100D01*
G01X7041800Y3100000D02*
Y3178700D01*
X7066200D01*
X7074000Y3174800D01*
X7078800Y3169500D01*
X7080800Y3159000D01*
X7078800Y3148500D01*
X7073000Y3142000D01*
X7066200Y3138000D01*
X7041800D01*
G01X7066200D02*
X7080800Y3100000D01*
G01X7140000D02*
Y3178700D01*
X7128300Y3163000D01*
G01Y3100000D02*
X7151700D01*
G01X7218700Y3178700D02*
X7210900Y3176100D01*
X7205100Y3169500D01*
X7201200Y3161600D01*
X7198300Y3151200D01*
X7197300Y3139300D01*
X7198300Y3127500D01*
X7201200Y3117100D01*
X7205100Y3109200D01*
X7210900Y3102600D01*
X7218700Y3100000D01*
X7226500Y3102600D01*
X7232300Y3109200D01*
X7236200Y3117100D01*
X7239100Y3127500D01*
X7240100Y3139300D01*
X7239100Y3151200D01*
X7236200Y3161600D01*
X7232300Y3169500D01*
X7226500Y3176100D01*
X7218700Y3178700D01*
G01X7071100Y2700000D02*
Y2778700D01*
X7095500D01*
X7103300Y2774800D01*
X7108100Y2769500D01*
X7110100Y2759000D01*
X7108100Y2748500D01*
X7102300Y2742000D01*
X7095500Y2738000D01*
X7071100D01*
G01X7095500D02*
X7110100Y2700000D01*
G01X7152800Y2709200D02*
X7159600Y2702600D01*
X7167400Y2700000D01*
X7175100Y2702600D01*
X7182000Y2710500D01*
X7186800Y2722300D01*
X7188800Y2734100D01*
Y2748500D01*
X7186800Y2760300D01*
X7182000Y2770800D01*
X7176100Y2776100D01*
X7169300Y2778700D01*
X7161500Y2776100D01*
X7155700Y2770800D01*
X7151800Y2763000D01*
X7149800Y2752500D01*
X7151800Y2743300D01*
X7156600Y2734100D01*
X7162500Y2728900D01*
X7169300Y2727500D01*
X7177100Y2730200D01*
X7182900Y2736700D01*
X7188800Y2748500D01*
G01X6789900Y4857000D02*
Y4766000D01*
X6796300Y4746900D01*
X6809200Y4734200D01*
X6825200Y4730000D01*
X6841300Y4734200D01*
X6854200Y4746900D01*
X6860600Y4766000D01*
Y4857000D01*
G01X6919400Y4755400D02*
X6929000Y4740600D01*
X6941900Y4732100D01*
X6956400Y4730000D01*
X6969200Y4732100D01*
X6982100Y4742700D01*
X6990100Y4755400D01*
X6991700Y4768100D01*
X6988500Y4782900D01*
X6977300Y4793500D01*
X6966000Y4797700D01*
X6951500D01*
G01X6966000D02*
X6975700Y4804100D01*
X6983700Y4814700D01*
X6986900Y4827400D01*
X6983700Y4840100D01*
X6975700Y4850600D01*
X6961200Y4857000D01*
X6946700Y4854900D01*
X6932200Y4846400D01*
G01X7112000Y6197600D02*
Y5486400D01*
X6858000D01*
Y6197600D01*
X7112000D01*
G01X7141100Y5870000D02*
Y5948700D01*
X7165500D01*
X7173300Y5944800D01*
X7178100Y5939500D01*
X7180100Y5929000D01*
X7178100Y5918500D01*
X7172300Y5912000D01*
X7165500Y5908000D01*
X7141100D01*
G01X7165500D02*
X7180100Y5870000D01*
G01X7237400D02*
X7239300Y5887100D01*
X7242200Y5901500D01*
X7246100Y5914600D01*
X7251000Y5929000D01*
X7258800Y5948700D01*
X7219800D01*
G01X8445500Y3048000D02*
G03I-254000J0D01*
G01X8160600Y3496400D02*
X8151000Y3502800D01*
X8139700Y3507000D01*
X8126900D01*
X8112400Y3500600D01*
X8101100Y3490100D01*
X8093100Y3477400D01*
X8086600Y3456200D01*
X8085000Y3437100D01*
X8088300Y3418100D01*
X8093100Y3405400D01*
X8102700Y3392700D01*
X8114000Y3384200D01*
X8125200Y3380000D01*
X8136500D01*
X8147800Y3384200D01*
X8157400Y3390600D01*
X8165500Y3399000D01*
G01X8274100Y3380000D02*
Y3507000D01*
X8214500Y3416000D01*
X8295000D01*
G01X8483600Y5080000D02*
X8636000D01*
X8699500Y5016500D01*
X8826500D01*
X8890000Y5080000D01*
X9042400D01*
Y4064000D01*
X8483600D01*
Y5080000D01*
G01X9627000Y3373000D02*
X9373000D01*
Y3881000D01*
X9627000D01*
Y3373000D01*
G01X9361100Y3955700D02*
X9366000Y3947900D01*
X9371800Y3942600D01*
X9378700Y3940000D01*
X9386400Y3942600D01*
X9392300Y3947900D01*
X9398100Y3955700D01*
X9400100Y3966200D01*
Y4018700D01*
G01X9459300Y3940000D02*
Y4018700D01*
X9447600Y4003000D01*
G01Y3940000D02*
X9471000D01*
G01X9119900Y4807000D02*
Y4716000D01*
X9126300Y4696900D01*
X9139200Y4684200D01*
X9155200Y4680000D01*
X9171300Y4684200D01*
X9184200Y4696900D01*
X9190600Y4716000D01*
Y4807000D01*
G01X9304100Y4680000D02*
Y4807000D01*
X9244500Y4716000D01*
X9325000D01*
G01X8953500Y5486400D02*
Y6197600D01*
X9207500D01*
Y5486400D01*
X8953500D01*
G01X9271100Y5710000D02*
Y5788700D01*
X9295500D01*
X9303300Y5784800D01*
X9308100Y5779500D01*
X9310100Y5769000D01*
X9308100Y5758500D01*
X9302300Y5752000D01*
X9295500Y5748000D01*
X9271100D01*
G01X9295500D02*
X9310100Y5710000D01*
G01X9381000D02*
Y5788700D01*
X9345000Y5732300D01*
X9393600D01*
M02*
