G04 ================== begin FILE IDENTIFICATION RECORD ==================*
G04 Layout Name:  C:/Users/user/Desktop/OSCILLATOR/OSCILLATOR.brd*
G04 Film Name:    SolderB*
G04 File Format:  Gerber RS274X*
G04 File Origin:  Cadence Allegro 17.2-P019*
G04 Origin Date:  Thu Aug 01 11:48:32 2019*
G04 *
G04 Layer:  VIA CLASS/SOLDERMASK_BOTTOM*
G04 Layer:  PIN/SOLDERMASK_BOTTOM*
G04 Layer:  PACKAGE GEOMETRY/SOLDERMASK_BOTTOM*
G04 Layer:  BOARD GEOMETRY/SOLDERMASK_BOTTOM*
G04 *
G04 Offset:    (0.000 0.000)*
G04 Mirror:    No*
G04 Mode:      Positive*
G04 Rotation:  0*
G04 FullContactRelief:  No*
G04 UndefLineWidth:     0.000*
G04 ================== end FILE IDENTIFICATION RECORD ====================*
%FSLAX25Y25*MOMM*%
%IR0*IPPOS*OFA0.00000B0.00000*MIA0B0*SFA1.00000B1.00000*%
%ADD13C,2.032*%
%ADD11C,1.118*%
%ADD12C,1.905*%
%ADD10C,3.683*%
%ADD14R,1.905X1.905*%
%LPD*%
G75*
G54D10*
X500000Y500000D03*
Y6500000D03*
X9500000Y500000D03*
Y6500000D03*
G54D11*
X300400Y855600D03*
Y1871600D03*
Y1363600D03*
Y2379600D03*
Y3395600D03*
Y2887600D03*
Y3903600D03*
Y4919600D03*
Y4411600D03*
Y5427600D03*
Y5935600D03*
X808400Y347600D03*
Y855600D03*
Y1363600D03*
Y1871600D03*
Y2379600D03*
Y2887600D03*
Y3395600D03*
Y3903600D03*
Y4411600D03*
Y4919600D03*
Y5427600D03*
Y5935600D03*
Y6443600D03*
X1824400Y347600D03*
X1316400D03*
Y855600D03*
X1824400D03*
X1316400Y1363600D03*
X1824400D03*
X1316400Y1871600D03*
X1824400D03*
X1316400Y2379600D03*
X1824400Y2887600D03*
Y3395600D03*
Y3903600D03*
X1316400Y4411600D03*
Y4919600D03*
Y5427600D03*
X1824400D03*
X1316400Y5935600D03*
X1824400D03*
X1316400Y6443600D03*
X1824400D03*
X2332400Y347600D03*
Y855600D03*
Y1363600D03*
Y1871600D03*
Y2887600D03*
Y3395600D03*
Y3903600D03*
Y4919600D03*
Y5427600D03*
Y5935600D03*
Y6443600D03*
X3348400Y347600D03*
X2840400D03*
Y855600D03*
X3348400D03*
X2840400Y1363600D03*
X3348400D03*
X2840400Y1871600D03*
X3348400D03*
X2840400Y2887600D03*
Y3395600D03*
Y3903600D03*
Y5427600D03*
Y5935600D03*
X3348400D03*
X2840400Y6443600D03*
X3348400D03*
X3856400Y347600D03*
Y855600D03*
Y1363600D03*
Y1871600D03*
Y2379600D03*
Y2887600D03*
Y3395600D03*
Y3903600D03*
Y5935600D03*
Y6443600D03*
X4872400Y347600D03*
X4364400D03*
Y855600D03*
X4872400D03*
X4364400Y1363600D03*
X4872400D03*
X4364400Y1871600D03*
X4872400D03*
X4364400Y2379600D03*
X4872400D03*
X4364400Y2887600D03*
X4872400D03*
X4364400Y3395600D03*
X4872400D03*
X4364400Y3903600D03*
X4872400D03*
X4364400Y4411600D03*
X4872400D03*
X4364400Y4919600D03*
X4872400D03*
X4364400Y5427600D03*
X4872400D03*
X4364400Y5935600D03*
X4872400D03*
X4364400Y6443600D03*
X4872400D03*
X5380400Y347600D03*
Y855600D03*
Y1363600D03*
Y1871600D03*
Y2379600D03*
Y2887600D03*
Y3395600D03*
Y3903600D03*
Y4411600D03*
Y4919600D03*
Y5427600D03*
Y5935600D03*
Y6443600D03*
X6396400Y347600D03*
X5888400D03*
Y855600D03*
X6396400D03*
X5888400Y1363600D03*
X6396400D03*
X5888400Y1871600D03*
X6396400D03*
X5888400Y2379600D03*
X6396400D03*
Y2887600D03*
X5888400Y3395600D03*
X6396400D03*
X5888400Y3903600D03*
X6396400D03*
X5888400Y4411600D03*
X6396400D03*
X5888400Y4919600D03*
X6396400D03*
X5888400Y5427600D03*
X6396400D03*
X5888400Y5935600D03*
X6396400D03*
X5888400Y6443600D03*
X6396400D03*
X6904400Y347600D03*
Y855600D03*
Y1363600D03*
Y1871600D03*
Y2379600D03*
Y5935600D03*
X7920400Y347600D03*
X7412400D03*
Y855600D03*
X7920400D03*
X7412400Y1363600D03*
X7920400D03*
X7412400Y1871600D03*
X7920400D03*
X7412400Y2379600D03*
X7920400D03*
X7412400Y2887600D03*
X7920400D03*
X7412400Y3395600D03*
X7920400D03*
X7412400Y3903600D03*
X7920400D03*
X7412400Y4411600D03*
X7920400D03*
X7412400Y4919600D03*
X7920400D03*
X7412400Y5427600D03*
X7920400D03*
X7412400Y5935600D03*
X7920400D03*
X7412400Y6443600D03*
X7920400D03*
X8428400Y347600D03*
Y855600D03*
Y1363600D03*
Y1871600D03*
Y2379600D03*
Y2887600D03*
Y3395600D03*
Y3903600D03*
Y5427600D03*
Y5935600D03*
Y6443600D03*
X8936400Y347600D03*
Y855600D03*
X9444400D03*
X8936400Y1363600D03*
X9444400D03*
X8936400Y1871600D03*
X9444400D03*
X8936400Y2379600D03*
X9444400D03*
X8936400Y2887600D03*
X9444400D03*
Y3903600D03*
Y4411600D03*
Y4919600D03*
X8936400Y5427600D03*
X9444400D03*
X8936400Y5935600D03*
X9444400D03*
X8936400Y6443600D03*
G54D12*
X500000Y3492000D03*
Y3746000D03*
Y4000000D03*
X889000Y5778500D03*
X635000D03*
X1904000Y2250000D03*
X1397000Y4000500D03*
Y3746500D03*
X1810000Y4468000D03*
Y4722000D03*
Y4976000D03*
X2158000Y2250000D03*
X2572000Y4468000D03*
Y4722000D03*
Y4976000D03*
Y5230000D03*
X2222500Y6159500D03*
X2476500Y6413500D03*
X2730500Y6159500D03*
X3194000Y2230000D03*
X3448000D03*
X3790000Y4428000D03*
Y4682000D03*
Y4936000D03*
X4445000Y3048000D03*
X4699000D03*
X4552000Y4428000D03*
Y4682000D03*
Y4936000D03*
Y5190000D03*
X5397500Y2222500D03*
X5143500D03*
X5778500Y5588000D03*
Y5334000D03*
X6032500Y4254500D03*
Y4508500D03*
Y4762500D03*
X6794500Y4254500D03*
Y4508500D03*
Y4762500D03*
Y5016500D03*
X8064500Y3048000D03*
X8318500D03*
X8382000Y4191000D03*
Y4445000D03*
Y4699000D03*
X9144000Y4191000D03*
X9500000Y3754000D03*
Y3500000D03*
X9144000Y4445000D03*
Y4699000D03*
Y4953000D03*
G54D13*
X1206500Y5778500D03*
X1651000Y3238500D03*
X2667000D03*
X2222500Y5778500D03*
X3937000Y2222500D03*
Y3238500D03*
X3683000Y5588000D03*
X4699000D03*
X5143500Y1651000D03*
X6159500D03*
Y2222500D03*
Y2667000D03*
Y3048000D03*
X7175500Y2222500D03*
Y2667000D03*
Y3048000D03*
X6985000Y5334000D03*
Y6350000D03*
X9080500Y5334000D03*
Y6350000D03*
G54D14*
X1650000Y2250000D03*
X1810000Y5230000D03*
X2940000Y2230000D03*
X3790000Y5190000D03*
X6032500Y5016500D03*
X8382000Y4953000D03*
M02*
