G04 ================== begin FILE IDENTIFICATION RECORD ==================*
G04 Layout Name:  C:/Users/user/Desktop/OSCILLATOR/OSCILLATOR.brd*
G04 Film Name:    TOP*
G04 File Format:  Gerber RS274X*
G04 File Origin:  Cadence Allegro 17.2-P019*
G04 Origin Date:  Thu Aug 01 11:48:32 2019*
G04 *
G04 Layer:  ETCH/TOP*
G04 Layer:  PIN/TOP*
G04 Layer:  VIA CLASS/TOP*
G04 *
G04 Offset:    (0.000 0.000)*
G04 Mirror:    No*
G04 Mode:      Positive*
G04 Rotation:  0*
G04 FullContactRelief:  No*
G04 UndefLineWidth:     0.000*
G04 ================== end FILE IDENTIFICATION RECORD ====================*
%FSLAX25Y25*MOMM*%
%IR0*IPPOS*OFA0.00000B0.00000*MIA0B0*SFA1.00000B1.00000*%
%ADD12C,1.524*%
%ADD13C,1.651*%
%ADD15C,1.905*%
%ADD16R,1.524X1.524*%
%ADD14R,1.905X1.905*%
%ADD11C,.61*%
%ADD10C,.635*%
%ADD17C,1.*%
%ADD18C,.5*%
%ADD19C,2.402*%
%ADD20C,2.274*%
%ADD22C,2.528*%
%ADD21C,2.656*%
G75*
%LPD*%
G75*
G36*
G01X754200Y500000D02*
Y754200D01*
X500000D01*
Y3365600D01*
G03Y3618400I0J126400D01*
G01Y3632300D01*
G03Y3859700I0J113700D01*
G01Y3873600D01*
G03X601600Y3924800I0J126406D01*
G01X1295800D01*
G03X1413200Y3875100I101255J75672D01*
G01X1415700Y3875500D01*
X1428300Y3862800D01*
X1422800Y3857300D01*
X1420100Y3857800D01*
G03X1348000Y3643900I-23068J-111326D01*
G02X1350800Y3627500I-4433J-9196D01*
G01X1321800Y3598500D01*
Y2431900D01*
X1415900Y2337800D01*
X1517200D01*
Y2154800D01*
G03X1554800Y2117200I37550J-50D01*
G01X1745200D01*
G03X1781500Y2145100I34J37521D01*
G02X1798700Y2149600I9863J-2579D01*
G03X2022700Y2165800I105325J100395D01*
G02X2039300I8300J-5870D01*
G03X2284100Y2322500I118644J84217D01*
G02X2293000Y2337800I8853J5089D01*
G01X2797100D01*
G02X2807300Y2327100I14J-10198D01*
G03X2807200Y2325200I37394J-2921D01*
G01Y2134800D01*
G03X2844800Y2097200I37550J-50D01*
G01X3035200D01*
G03X3071500Y2125100I34J37521D01*
G02X3088700Y2129600I9863J-2579D01*
G03X3312700Y2145800I105325J100395D01*
G02X3329300I8300J-5870D01*
G03Y2314200I118700J84200D01*
G02X3312700I-8300J5870D01*
G03X3250200Y2364200I-118643J-84241D01*
G01Y2394100D01*
X3156100Y2488200D01*
X1478100D01*
X1472200Y2494100D01*
Y3536300D01*
X1598800Y3662900D01*
Y3905000D01*
X1522000Y3981800D01*
X1522400Y3984300D01*
G03X1295400Y4075700I-125370J16220D01*
G01X1207800D01*
Y4075200D01*
X601600D01*
G03X500000Y4126400I-101600J-75206D01*
G01Y5723000D01*
G02X519500Y5727100I10190J-42D01*
G03Y5829900I115500J51400D01*
G02X500000Y5834000I-9310J4142D01*
G01Y6245800D01*
X754200D01*
Y6500000D01*
X2363200D01*
G02X2371700Y6484100I23J-10209D01*
G03X2581300I104800J-70600D01*
G02X2589800Y6500000I8477J5691D01*
G01X9245800D01*
Y6245800D01*
X9500000D01*
Y3867700D01*
G03Y3640300I0J-113700D01*
G01Y3626400D01*
G03Y3373600I0J-126400D01*
G01Y754200D01*
X9245800D01*
Y500000D01*
X754200D01*
G37*
%LPC*%
G75*
G36*
G01X8971000Y6274800D02*
X7094500D01*
G02Y6425200I-109500J75200D01*
G01X8971000D01*
G02Y6274800I109500J-75200D01*
G37*
G36*
G01X4034000Y3123200D02*
X4343400D01*
G02Y2972800I101600J-75200D01*
G01X1810400D01*
X1675200Y3107900D01*
X1672700Y3107500D01*
G02X1782000Y3216800I-21700J131000D01*
G01X1781600Y3214300D01*
X1872600Y3123200D01*
X2570000D01*
G03X2577000Y3140900I63J10209D01*
G02X2776500Y3313700I90026J97627D01*
G01X3827500D01*
G02X4027000Y3140900I109474J-75173D01*
G03X4034000Y3123200I6937J-7491D01*
G37*
G36*
G01X8296500Y3963800D02*
X6181500D01*
X6016100Y4129200D01*
X6014500Y4129400D01*
G02X5955400Y4154300I17924J125129D01*
G01X3922000D01*
X3790000Y4286300D01*
X3719900Y4216200D01*
X1920100D01*
X1793600Y4342700D01*
X1792000Y4342900D01*
G02X1763500Y4585500I18030J125092D01*
G03Y4604500I-3796J9500D01*
G02Y4839500I46500J117500D01*
G03Y4858500I-3796J9500D01*
G02X1745400Y5084600I46528J117499D01*
G03X1740200Y5103600I-5194J8790D01*
G01X1733800D01*
G02X1683600Y5153800I0J50200D01*
G01Y5306200D01*
G02X1733800Y5356400I50200J0D01*
G01X1886200D01*
G02X1936400Y5306200I0J-50200D01*
G01Y5153800D01*
G02X1886200Y5103600I-50200J0D01*
G01X1879800D01*
G03X1874600Y5084600I-6J-10210D01*
G02X1856500Y4858500I-64628J-108601D01*
G03Y4839500I3796J-9500D01*
G02Y4604500I-46500J-117500D01*
G03Y4585500I3796J-9500D01*
G02X1935100Y4486000I-46493J-117522D01*
G01X1935300Y4484400D01*
X2003100Y4416600D01*
X2441800D01*
G03X2451500Y4429900I-22J10204D01*
G02X2525500Y4585500I120507J38086D01*
G03Y4604500I-3796J9500D01*
G02Y4839500I46500J117500D01*
G03Y4858500I-3796J9500D01*
G02Y5093500I46500J117500D01*
G03Y5112500I-3796J9500D01*
G02X2694300Y5261800I46484J117518D01*
G03X2711400Y5257100I9891J2529D01*
G01X2896100Y5441800D01*
X4187900D01*
X4412600Y5217100D01*
G03X4429700Y5221800I7209J7229D01*
G02X4674300I122300J-31800D01*
G03X4691400Y5217100I9891J2529D01*
G01X4742600Y5268300D01*
X5653700D01*
G03X5663000Y5282600I-24J10190D01*
G02X5894000I115500J51400D01*
G03X5903300Y5268300I9324J-4110D01*
G01X6493900D01*
X6640700Y5121500D01*
Y5058000D01*
X6655100Y5043600D01*
G03X6672200Y5048300I7209J7229D01*
G02X6916800I122300J-31800D01*
G03X6933900Y5043600I9891J2529D01*
G01X7134000Y5243700D01*
X8741000D01*
X9004600Y4980100D01*
G03X9021700Y4984800I7209J7229D01*
G02X9190500Y4835500I122316J-31782D01*
G03Y4816500I3796J-9500D01*
G02Y4581500I-46500J-117500D01*
G03Y4562500I3796J-9500D01*
G02Y4327500I-46500J-117500D01*
G03Y4308500I3796J-9500D01*
G02X9097500I-46500J-117500D01*
G03Y4327500I-3796J9500D01*
G02Y4562500I46500J117500D01*
G03Y4581500I-3796J9500D01*
G02X9018900Y4681000I46493J117522D01*
G01X9018700Y4682600D01*
X8658000Y5043300D01*
X8518500D01*
G03X8508300Y5032400I-28J-10196D01*
G02X8508400Y5029200I-50101J-3167D01*
G01Y4876800D01*
G02X8458200Y4826600I-50200J0D01*
G01X8305800D01*
G02X8255600Y4876800I0J50200D01*
G01Y5029200D01*
G02X8255700Y5032400I50201J33D01*
G03X8245500Y5043300I-10172J704D01*
G01X7217000D01*
X6919800Y4746100D01*
X6919600Y4744500D01*
G02X6841000Y4645000I-125093J18022D01*
G03Y4626000I3796J-9500D01*
G02Y4391000I-46500J-117500D01*
G03Y4372000I3796J-9500D01*
G02X6896900Y4180400I-46503J-117522D01*
G03X6905100Y4164200I8244J-6003D01*
G01X8213500D01*
X8256700Y4207400D01*
X8256900Y4209000D01*
G02X8335500Y4308500I125093J-18022D01*
G03Y4327500I-3796J9500D01*
G02X8428500I46500J117500D01*
G03Y4308500I3796J-9500D01*
G02X8400000Y4065900I-46530J-117508D01*
G01X8398400Y4065700D01*
X8296500Y3963800D01*
G37*
G36*
G01X4046500Y2147300D02*
G02Y2297700I-109500J75200D01*
G01X5041900D01*
G02X5261000Y2269000I101578J-75208D01*
G03X5280000I9500J3796D01*
G02X5499100Y2297700I117522J-46508D01*
G01X6050000D01*
G02Y2147300I109500J-75200D01*
G01X5499100D01*
G02X5280000Y2176000I-101578J75208D01*
G03X5261000I-9500J-3796D01*
G02X5041900Y2147300I-117522J46508D01*
G01X4046500D01*
G37*
G54D19*
X1206500Y5778500D03*
X4699000Y5588000D03*
X7175500Y3048000D03*
G54D20*
X889000Y5778500D03*
X4699000Y3048000D03*
X5778500Y5588000D03*
X8064500Y3048000D03*
X8382000Y4699000D03*
G54D22*
X2222500Y6159500D03*
X2730500D03*
X8318500Y3048000D03*
G54D21*
X2222500Y5778500D03*
X3683000Y5588000D03*
X5143500Y1651000D03*
X6159500D03*
Y2667000D03*
Y3048000D03*
X7175500Y2222500D03*
Y2667000D03*
X6985000Y5334000D03*
X9080500D03*
%LPD*%
G75*
G54D10*
X500000Y500000D03*
Y6500000D03*
X9500000Y500000D03*
Y6500000D03*
G54D11*
X300400Y855600D03*
Y1871600D03*
Y1363600D03*
Y2379600D03*
Y3395600D03*
Y2887600D03*
Y3903600D03*
Y4919600D03*
Y4411600D03*
Y5427600D03*
Y5935600D03*
X808400Y347600D03*
Y855600D03*
Y1363600D03*
Y1871600D03*
Y2379600D03*
Y2887600D03*
Y3395600D03*
Y3903600D03*
Y4411600D03*
Y4919600D03*
Y5427600D03*
Y5935600D03*
Y6443600D03*
X1824400Y347600D03*
X1316400D03*
Y855600D03*
X1824400D03*
X1316400Y1363600D03*
X1824400D03*
X1316400Y1871600D03*
X1824400D03*
X1316400Y2379600D03*
X1824400Y2887600D03*
Y3395600D03*
Y3903600D03*
X1316400Y4411600D03*
Y4919600D03*
Y5427600D03*
X1824400D03*
X1316400Y5935600D03*
X1824400D03*
X1316400Y6443600D03*
X1824400D03*
X2332400Y347600D03*
Y855600D03*
Y1363600D03*
Y1871600D03*
Y2887600D03*
Y3395600D03*
Y3903600D03*
Y4919600D03*
Y5427600D03*
Y5935600D03*
Y6443600D03*
X3348400Y347600D03*
X2840400D03*
Y855600D03*
X3348400D03*
X2840400Y1363600D03*
X3348400D03*
X2840400Y1871600D03*
X3348400D03*
X2840400Y2887600D03*
Y3395600D03*
Y3903600D03*
Y5427600D03*
Y5935600D03*
X3348400D03*
X2840400Y6443600D03*
X3348400D03*
X3856400Y347600D03*
Y855600D03*
Y1363600D03*
Y1871600D03*
Y2379600D03*
Y2887600D03*
Y3395600D03*
Y3903600D03*
Y5935600D03*
Y6443600D03*
X4872400Y347600D03*
X4364400D03*
Y855600D03*
X4872400D03*
X4364400Y1363600D03*
X4872400D03*
X4364400Y1871600D03*
X4872400D03*
X4364400Y2379600D03*
X4872400D03*
X4364400Y2887600D03*
X4872400D03*
X4364400Y3395600D03*
X4872400D03*
X4364400Y3903600D03*
X4872400D03*
X4364400Y4411600D03*
X4872400D03*
X4364400Y4919600D03*
X4872400D03*
X4364400Y5427600D03*
X4872400D03*
X4364400Y5935600D03*
X4872400D03*
X4364400Y6443600D03*
X4872400D03*
X5380400Y347600D03*
Y855600D03*
Y1363600D03*
Y1871600D03*
Y2379600D03*
Y2887600D03*
Y3395600D03*
Y3903600D03*
Y4411600D03*
Y4919600D03*
Y5427600D03*
Y5935600D03*
Y6443600D03*
X6396400Y347600D03*
X5888400D03*
Y855600D03*
X6396400D03*
X5888400Y1363600D03*
X6396400D03*
X5888400Y1871600D03*
X6396400D03*
X5888400Y2379600D03*
X6396400D03*
Y2887600D03*
X5888400Y3395600D03*
X6396400D03*
X5888400Y3903600D03*
X6396400D03*
X5888400Y4411600D03*
X6396400D03*
X5888400Y4919600D03*
X6396400D03*
X5888400Y5427600D03*
X6396400D03*
X5888400Y5935600D03*
X6396400D03*
X5888400Y6443600D03*
X6396400D03*
X6904400Y347600D03*
Y855600D03*
Y1363600D03*
Y1871600D03*
Y2379600D03*
Y5935600D03*
X7920400Y347600D03*
X7412400D03*
Y855600D03*
X7920400D03*
X7412400Y1363600D03*
X7920400D03*
X7412400Y1871600D03*
X7920400D03*
X7412400Y2379600D03*
X7920400D03*
X7412400Y2887600D03*
X7920400D03*
X7412400Y3395600D03*
X7920400D03*
X7412400Y3903600D03*
X7920400D03*
X7412400Y4411600D03*
X7920400D03*
X7412400Y4919600D03*
X7920400D03*
X7412400Y5427600D03*
X7920400D03*
X7412400Y5935600D03*
X7920400D03*
X7412400Y6443600D03*
X7920400D03*
X8428400Y347600D03*
Y855600D03*
Y1363600D03*
Y1871600D03*
Y2379600D03*
Y2887600D03*
Y3395600D03*
Y3903600D03*
Y5427600D03*
Y5935600D03*
Y6443600D03*
X8936400Y347600D03*
Y855600D03*
X9444400D03*
X8936400Y1363600D03*
X9444400D03*
X8936400Y1871600D03*
X9444400D03*
X8936400Y2379600D03*
X9444400D03*
X8936400Y2887600D03*
X9444400D03*
Y3903600D03*
Y4411600D03*
Y4919600D03*
X8936400Y5427600D03*
X9444400D03*
X8936400Y5935600D03*
X9444400D03*
X8936400Y6443600D03*
G54D12*
X500000Y3492000D03*
Y3746000D03*
Y4000000D03*
X889000Y5778500D03*
X635000D03*
X1397000Y4000500D03*
Y3746500D03*
X1810000Y4468000D03*
Y4722000D03*
Y4976000D03*
X2572000Y4468000D03*
Y4722000D03*
Y4976000D03*
Y5230000D03*
X2222500Y6159500D03*
X2476500Y6413500D03*
X2730500Y6159500D03*
X3790000Y4428000D03*
Y4682000D03*
Y4936000D03*
X4445000Y3048000D03*
X4699000D03*
X4552000Y4428000D03*
Y4682000D03*
Y4936000D03*
Y5190000D03*
X5397500Y2222500D03*
X5143500D03*
X5778500Y5588000D03*
Y5334000D03*
X6032500Y4254500D03*
Y4508500D03*
Y4762500D03*
X6794500Y4254500D03*
Y4508500D03*
Y4762500D03*
Y5016500D03*
X8064500Y3048000D03*
X8318500D03*
X8382000Y4191000D03*
Y4445000D03*
Y4699000D03*
X9144000Y4191000D03*
X9500000Y3754000D03*
Y3500000D03*
X9144000Y4445000D03*
Y4699000D03*
Y4953000D03*
G54D13*
X1206500Y5778500D03*
X1651000Y3238500D03*
X2667000D03*
X2222500Y5778500D03*
X3937000Y2222500D03*
Y3238500D03*
X3683000Y5588000D03*
X4699000D03*
X5143500Y1651000D03*
X6159500D03*
Y2222500D03*
Y2667000D03*
Y3048000D03*
X7175500Y2222500D03*
Y2667000D03*
Y3048000D03*
X6985000Y5334000D03*
Y6350000D03*
X9080500Y5334000D03*
Y6350000D03*
G54D14*
X1650000Y2250000D03*
X2940000Y2230000D03*
G54D15*
X1904000Y2250000D03*
X2158000D03*
X3194000Y2230000D03*
X3448000D03*
G54D16*
X1810000Y5230000D03*
X3790000Y5190000D03*
X6032500Y5016500D03*
X8382000Y4953000D03*
G54D17*
G01X1258000Y3746000D02*
X500000D01*
G01X889000Y5778500D02*
X1206500D01*
G01X1650000Y2250000D02*
Y2223500D01*
X1794200Y2079300D01*
G01D02*
X2777800D01*
G01X1397000Y3746500D02*
X1258000D01*
G01D02*
Y3746000D01*
G01X3790000Y4428000D02*
X3678400Y4316400D01*
X1961600D01*
X1810000Y4468000D01*
G01X4552000Y4936000D02*
X4146400Y5341600D01*
X2937600D01*
X2572000Y4976000D01*
G01X2777800Y2079300D02*
X2928500Y2230000D01*
X2940000D01*
G01X6032500Y4254500D02*
X3963500D01*
X3790000Y4428000D01*
G01X4889500Y3238500D02*
X4699000Y3048000D01*
G01X6985000Y3238500D02*
X4889500D01*
G01X6794500Y4762500D02*
X6540500Y5016500D01*
Y5080000D01*
X6452400Y5168100D01*
X4784100D01*
X4552000Y4936000D01*
G01X4699000Y5588000D02*
X5778500D01*
G01X6032500Y4254500D02*
X6223000Y4064000D01*
X8255000D01*
X8382000Y4191000D01*
G01X7175500Y3048000D02*
X8064500D01*
G01X7175500D02*
X6985000Y3238500D01*
G01X9144000Y4699000D02*
X8699500Y5143500D01*
X7175500D01*
X6794500Y4762500D01*
G01X9500000Y3754000D02*
X8672500D01*
G01D02*
X8572500Y3854000D01*
Y4508500D01*
G01D02*
X8382000Y4699000D01*
G54D18*
G01X500000Y3627200D02*
Y3746000D01*
G01D02*
Y3864800D01*
G01Y4000000D02*
X1283000D01*
Y4000500D01*
X1397000D01*
G01X889000Y5659700D02*
Y5778500D01*
G01D02*
Y5897300D01*
G01X770200Y5778500D02*
X889000D01*
G01X1397000Y4000500D02*
X1523600Y3873900D01*
Y3694000D01*
X1397000Y3567400D01*
Y2463000D01*
X1447000Y2413000D01*
X3125000D01*
X3175000Y2363000D01*
Y2249000D01*
X3194000Y2230000D01*
G01X4445000Y3048000D02*
X1841500D01*
X1651000Y3238500D01*
G01X1206500Y5653300D02*
Y5778500D01*
G01D02*
Y5903700D01*
G01Y5778500D02*
X1331700D01*
G01X2667000Y3238500D02*
X3937000D01*
G01Y2222500D02*
X5143500D01*
G01X4699000Y2929200D02*
Y3048000D01*
G01D02*
Y3166800D01*
G01X4580200Y3048000D02*
X4699000D01*
G01D02*
X4817800D01*
G01X4552000Y4682000D02*
X5859000D01*
X6032500Y4508500D01*
G01X4699000Y5462800D02*
Y5588000D01*
G01D02*
Y5713200D01*
G01X4573800Y5588000D02*
X4699000D01*
G01X5397500Y2222500D02*
X6159500D01*
G01X5778500Y5469200D02*
Y5588000D01*
G01D02*
Y5706800D01*
G01Y5588000D02*
X5897300D01*
G01X7175500Y2922800D02*
Y3048000D01*
G01D02*
Y3173200D01*
G01X7050300Y3048000D02*
X7175500D01*
G01X6985000Y6350000D02*
X9080500D01*
G01X8064500Y2929200D02*
Y3048000D01*
G01D02*
Y3166800D01*
G01Y3048000D02*
X8183300D01*
G01X8382000Y4580200D02*
Y4699000D01*
G01D02*
Y4817800D01*
G01X8263200Y4699000D02*
X8382000D01*
G01D02*
X8500800D01*
G01X9500000Y3635200D02*
Y3754000D01*
G01D02*
Y3872800D01*
M02*
